<?xml version="1.0" encoding="UTF-8" standalone="no"?>
<!DOCTYPE svg PUBLIC "-//W3C//DTD SVG 1.1//EN" "http://www.w3.org/Graphics/SVG/1.1/DTD/svg11.dtd">
<svg width="100%" height="100%" viewBox="0 0 800 597" version="1.1" xmlns="http://www.w3.org/2000/svg" xmlns:xlink="http://www.w3.org/1999/xlink" xml:space="preserve" xmlns:serif="http://www.serif.com/" style="fill-rule:evenodd;clip-rule:evenodd;stroke-linejoin:round;stroke-miterlimit:10;">
    <g id="path9" transform="matrix(1,0,0,1,86.9655,-30.4828)">
        <path d="M286.85,362.505L287.092,370.902" style="fill:none;fill-rule:nonzero;stroke:black;stroke-width:2.56px;"/>
    </g>
    <g id="path11" transform="matrix(1,0,0,1,86.9655,-30.4828)">
        <path d="M323.787,370.659L323.262,362.505" style="fill:none;fill-rule:nonzero;stroke:black;stroke-width:2.56px;"/>
    </g>
    <g id="path13" transform="matrix(1,0,0,1,0,26)">
        <rect x="218.971" y="65.781" width="130.389" height="73.349" style="fill:rgb(56,118,29);fill-rule:nonzero;stroke:black;stroke-width:2.56px;"/>
    </g>
    <g id="path15" transform="matrix(1,0,0,1,0,27)">
        <path d="M268.738,139.13L283.13,119.511L297.521,139.13L268.738,139.13Z" style="fill:rgb(243,243,243);fill-rule:nonzero;stroke:black;stroke-width:2.56px;"/>
    </g>
    <g id="path17" transform="matrix(1,0,0,1,0,27)">
        <path d="M271.362,139.13L294.897,139.251" style="fill:none;fill-rule:nonzero;stroke:white;stroke-width:3.85px;"/>
    </g>
    <g id="path19" transform="matrix(1,0,0,1,0,26)">
        <path d="M262.84,76.573L272.77,76.614" style="fill:none;fill-rule:nonzero;stroke:black;stroke-width:2.56px;"/>
    </g>
    <g id="path21" transform="matrix(1,0,0,1,0,26)">
        <path d="M272.138,75.863L272.38,86.44" style="fill:none;fill-rule:nonzero;stroke:black;stroke-width:2.56px;"/>
    </g>
    <g id="path23" transform="matrix(1,0,0,1,0,26)">
        <path d="M273.026,85.148L298.094,85.229" style="fill:none;fill-rule:nonzero;stroke:black;stroke-width:2.56px;"/>
    </g>
    <g id="path25" transform="matrix(1,0,0,1,0,26)">
        <path d="M297.015,85.212L296.853,76.654" style="fill:none;fill-rule:nonzero;stroke:black;stroke-width:2.56px;"/>
    </g>
    <g id="path27" transform="matrix(1,0,0,1,0,26)">
        <path d="M295.561,76.492L305.492,76.654" style="fill:none;fill-rule:nonzero;stroke:black;stroke-width:2.56px;"/>
    </g>
    <g id="path29" transform="matrix(1,0,0,1,0,26)">
        <path d="M263.731,77.512L263.731,67.137" style="fill:none;fill-rule:nonzero;stroke:black;stroke-width:2.56px;"/>
    </g>
    <g id="path31" transform="matrix(1,0,0,1,0,26)">
        <path d="M304.856,77.892L304.856,65.781" style="fill:none;fill-rule:nonzero;stroke:black;stroke-width:2.56px;"/>
    </g>
    <g id="path33" transform="matrix(1,0,0,1,0,26)">
        <rect x="271.934" y="65.781" width="24.463" height="19.619" style="fill:rgb(243,243,243);fill-rule:nonzero;stroke:black;stroke-width:2.56px;"/>
    </g>
    <g id="path35" transform="matrix(1,0,0,1,0,26)">
        <rect x="263.807" y="65.933" width="41.014" height="10.213" style="fill:rgb(243,243,243);fill-rule:nonzero;stroke:black;stroke-width:2.56px;"/>
    </g>
    <g id="path37" transform="matrix(1,0,0,1,0,26)">
        <path d="M273.226,75.867L295.106,76.109" style="fill:none;fill-rule:nonzero;stroke:rgb(243,243,243);stroke-width:5.13px;"/>
    </g>
    <g id="path39" transform="matrix(1,0,0,1,0,26)">
        <path d="M265.018,66.175L303.61,65.933" style="fill:none;fill-rule:nonzero;stroke:rgb(243,243,243);stroke-width:10.25px;"/>
    </g>
    <g id="path41" transform="matrix(1,0,0,1,7,27)">
        <rect x="17.807" y="141.3" width="152.793" height="26.481" style="fill:rgb(207,226,243);fill-rule:nonzero;stroke:black;stroke-width:2.56px;"/>
    </g>
    <g id="path45" transform="matrix(1,0,0,1,0,27)">
        <rect x="209.313" y="140.271" width="32.577" height="28.54" style="fill:rgb(207,226,243);fill-rule:nonzero;stroke:black;stroke-width:2.56px;"/>
    </g>
    <g id="path47" transform="matrix(1,0,0,1,0,27)">
        <rect x="241.89" y="138.232" width="79.444" height="32.617" style="fill:rgb(255,0,0);fill-rule:nonzero;stroke:black;stroke-width:2.56px;"/>
    </g>
    <g id="path49" transform="matrix(1,0,0,1,0,27)">
        <path d="M266.333,138.252L281.613,117.88L296.892,138.252L266.333,138.252Z" style="fill:rgb(255,0,0);fill-rule:nonzero;stroke:black;stroke-width:2.56px;"/>
    </g>
    <g id="path53" transform="matrix(1,0,0,1,0,27)">
        <path d="M269.018,138.505L294.207,138.383" style="fill:none;fill-rule:nonzero;stroke:rgb(255,0,0);stroke-width:3.85px;"/>
    </g>
    <g id="path55" transform="matrix(1,0,0,1,0,27)">
        <rect x="626.921" y="141.32" width="152.793" height="26.481" style="fill:rgb(207,226,243);fill-rule:nonzero;stroke:black;stroke-width:2.56px;"/>
    </g>
    <g id="path57" transform="matrix(1,0,0,1,0,27)">
        <rect x="474.128" y="141.32" width="152.793" height="26.481" style="fill:rgb(207,226,243);fill-rule:nonzero;stroke:black;stroke-width:2.56px;"/>
    </g>
    <g id="path59" transform="matrix(1,0,0,1,0,27)">
        <rect x="321.335" y="141.32" width="152.793" height="26.481" style="fill:rgb(207,226,243);fill-rule:nonzero;stroke:black;stroke-width:2.56px;"/>
    </g>
    <g id="path61" transform="matrix(1,0,0,1,-39,-5)">
        <path d="M119.672,113.807C123.067,125.35 172.976,154.548 193.007,140.288C213.039,126.028 239.861,48.957 239.861,28.247C239.861,7.536 204.211,8.895 193.007,16.025C181.804,23.155 184.861,54.73 172.638,71.027C160.416,87.324 116.277,102.263 119.672,113.807Z" style="fill:rgb(255,255,0);fill-rule:nonzero;stroke:black;stroke-width:2.56px;"/>
    </g>
    <g id="path63" transform="matrix(1,0,0,1,7,0)">
        <rect x="17.807" y="510.319" width="152.793" height="26.481" style="fill:rgb(207,226,243);fill-rule:nonzero;stroke:black;stroke-width:2.56px;"/>
    </g>
    <rect id="path67" x="209.313" y="509.29" width="32.577" height="28.54" style="fill:rgb(207,226,243);fill-rule:nonzero;stroke:black;stroke-width:2.56px;"/>
    <rect id="path69" x="241.89" y="507.251" width="79.444" height="32.617" style="fill:rgb(255,0,0);fill-rule:nonzero;stroke:black;stroke-width:2.56px;"/>
    <path id="path71" d="M266.333,507.272L281.613,486.899L296.892,507.272L266.333,507.272Z" style="fill:rgb(255,0,0);fill-rule:nonzero;stroke:black;stroke-width:2.56px;"/>
    <path id="path75" d="M269.018,507.524L294.207,507.403" style="fill:none;fill-rule:nonzero;stroke:rgb(255,0,0);stroke-width:3.85px;"/>
    <rect id="path77" x="626.921" y="510.34" width="152.793" height="26.481" style="fill:rgb(207,226,243);fill-rule:nonzero;stroke:black;stroke-width:2.56px;"/>
    <rect id="path79" x="474.128" y="510.34" width="152.793" height="26.481" style="fill:rgb(207,226,243);fill-rule:nonzero;stroke:black;stroke-width:2.56px;"/>
    <rect id="path81" x="321.335" y="510.34" width="152.793" height="26.481" style="fill:rgb(207,226,243);fill-rule:nonzero;stroke:black;stroke-width:2.56px;"/>
    <g id="path83" transform="matrix(1,0,0,1,86.9655,-30.4828)">
        <rect x="239.861" y="361.462" width="130.389" height="73.349" style="fill:rgb(56,118,29);fill-rule:nonzero;stroke:black;stroke-width:2.56px;"/>
    </g>
    <g id="path85" transform="matrix(1,0,0,1,86.9655,-30.4828)">
        <path d="M289.628,434.811L304.02,415.192L318.411,434.811L289.628,434.811Z" style="fill:rgb(243,243,243);fill-rule:nonzero;stroke:black;stroke-width:2.56px;"/>
    </g>
    <g id="path87" transform="matrix(1,0,0,1,86.9655,-30.4828)">
        <path d="M292.252,434.811L315.787,434.932" style="fill:none;fill-rule:nonzero;stroke:white;stroke-width:3.85px;"/>
    </g>
    <g id="path89" transform="matrix(1,0,0,1,86.9655,-30.4828)">
        <path d="M283.73,372.254L293.66,372.294" style="fill:none;fill-rule:nonzero;stroke:black;stroke-width:2.56px;"/>
    </g>
    <g id="path91" transform="matrix(1,0,0,1,86.9655,-30.4828)">
        <path d="M293.028,371.544L293.27,382.121" style="fill:none;fill-rule:nonzero;stroke:black;stroke-width:2.56px;"/>
    </g>
    <g id="path93" transform="matrix(1,0,0,1,86.9655,-30.4828)">
        <path d="M293.916,380.829L318.984,380.91" style="fill:none;fill-rule:nonzero;stroke:black;stroke-width:2.56px;"/>
    </g>
    <g id="path95" transform="matrix(1,0,0,1,86.9655,-30.4828)">
        <path d="M317.905,380.893L317.743,372.335" style="fill:none;fill-rule:nonzero;stroke:black;stroke-width:2.56px;"/>
    </g>
    <g id="path97" transform="matrix(1,0,0,1,86.9655,-30.4828)">
        <path d="M316.451,372.173L326.382,372.335" style="fill:none;fill-rule:nonzero;stroke:black;stroke-width:2.56px;"/>
    </g>
    <g id="path99" transform="matrix(1,0,0,1,86.9655,-30.4828)">
        <path d="M284.621,373.192L284.621,362.818" style="fill:none;fill-rule:nonzero;stroke:black;stroke-width:2.56px;"/>
    </g>
    <g id="path101" transform="matrix(1,0,0,1,86.9655,-30.4828)">
        <path d="M325.746,373.573L325.746,361.462" style="fill:none;fill-rule:nonzero;stroke:black;stroke-width:2.56px;"/>
    </g>
    <g id="path103" transform="matrix(1,0,0,1,86.9655,-30.4828)">
        <rect x="292.824" y="361.462" width="24.463" height="19.619" style="fill:rgb(243,243,243);fill-rule:nonzero;stroke:black;stroke-width:2.56px;"/>
    </g>
    <g id="path105" transform="matrix(1,0,0,1,86.9655,-30.4828)">
        <rect x="284.697" y="361.614" width="41.014" height="10.213" style="fill:rgb(243,243,243);fill-rule:nonzero;stroke:black;stroke-width:2.56px;"/>
    </g>
    <g id="path107" transform="matrix(1,0,0,1,86.9655,-30.4828)">
        <path d="M294.116,371.547L315.996,371.79" style="fill:none;fill-rule:nonzero;stroke:rgb(243,243,243);stroke-width:5.13px;"/>
    </g>
    <g id="path109" transform="matrix(1,0,0,1,86.9655,-30.4828)">
        <path d="M285.908,361.856L324.5,361.614" style="fill:none;fill-rule:nonzero;stroke:rgb(243,243,243);stroke-width:10.25px;"/>
    </g>
    <g id="path111" transform="matrix(1,0,0,1,86.9655,-30.4828)">
        <path d="M286.85,354.098L295.256,354.098L295.256,345.692L314.855,345.692L314.855,354.098L323.262,354.098L323.262,370.912L314.855,370.912L314.855,379.318L295.256,379.318L295.256,370.912L286.85,370.912L286.85,354.098Z" style="fill:white;fill-rule:nonzero;stroke:black;stroke-width:2.56px;"/>
    </g>
    <g id="path113" transform="matrix(1,0,0,1,-239.776,13.2519)">
        <path d="M458.105,301.27L466.511,301.27L466.511,292.863L486.11,292.863L486.11,301.27L494.517,301.27L494.517,318.083L486.11,318.083L486.11,326.49L466.511,326.49L466.511,318.083L458.105,318.083L458.105,301.27Z" style="fill:white;fill-rule:nonzero;stroke:black;stroke-width:2.56px;"/>
    </g>
    <path id="path115" d="M17.807,423.417L26.214,423.417L26.214,415.01L45.813,415.01L45.813,423.417L54.219,423.417L54.219,440.23L45.813,440.23L45.813,448.637L26.214,448.637L26.214,440.23L17.807,440.23L17.807,423.417Z" style="fill:white;fill-rule:nonzero;stroke:black;stroke-width:2.56px;"/>
    <path id="path119" d="M710.587,423.417L718.993,423.417L718.993,415.01L738.592,415.01L738.592,423.417L746.999,423.417L746.999,440.23L738.592,440.23L738.592,448.637L718.993,448.637L718.993,440.23L710.587,440.23L710.587,423.417Z" style="fill:white;fill-rule:nonzero;stroke:black;stroke-width:2.56px;"/>
    <path id="path121" d="M591.06,358.297L599.467,358.297L599.467,349.89L619.066,349.89L619.066,358.297L627.472,358.297L627.472,375.11L619.066,375.11L619.066,383.517L599.467,383.517L599.467,375.11L591.06,375.11L591.06,358.297Z" style="fill:white;fill-rule:nonzero;stroke:black;stroke-width:2.56px;"/>
    <path id="path123" d="M45.247,320.472L53.654,320.472L53.654,312.065L73.252,312.065L73.252,320.472L81.659,320.472L81.659,337.285L73.252,337.285L73.252,345.692L53.654,345.692L53.654,337.285L45.247,337.285L45.247,320.472Z" style="fill:white;fill-rule:nonzero;stroke:black;stroke-width:2.56px;"/>
    <g id="path125" transform="matrix(1,0,0,1,70.4007,10.7672)">
        <path d="M419.258,423.417L427.664,423.417L427.664,415.01L447.263,415.01L447.263,423.417L455.67,423.417L455.67,440.23L447.263,440.23L447.263,448.637L427.664,448.637L427.664,440.23L419.258,440.23L419.258,423.417Z" style="fill:white;fill-rule:nonzero;stroke:black;stroke-width:2.56px;"/>
    </g>
    <path id="path127" d="M137.192,358.297L145.599,358.297L145.599,349.89L165.197,349.89L165.197,358.297L173.604,358.297L173.604,375.11L165.197,375.11L165.197,383.517L145.599,383.517L145.599,375.11L137.192,375.11L137.192,358.297Z" style="fill:white;fill-rule:nonzero;stroke:black;stroke-width:2.56px;"/>
    <path id="path129" d="M674.175,322.109L682.581,322.109L682.581,313.702L702.18,313.702L702.18,322.109L710.587,322.109L710.587,338.922L702.18,338.922L702.18,347.329L682.581,347.329L682.581,338.922L674.175,338.922L674.175,322.109Z" style="fill:white;fill-rule:nonzero;stroke:black;stroke-width:2.56px;"/>
    <path id="path131" d="M5.87,248.085L794.13,248.085" style="fill:none;fill-rule:nonzero;stroke:black;stroke-width:1.74px;"/>
    <g id="path133" transform="matrix(1,0,0,1,-20,0)">
        <path d="M144.506,63.637L142.364,63.637L142.364,49.999C141.856,50.493 141.182,50.987 140.341,51.481C139.5,51.962 138.745,52.329 138.078,52.582L138.078,50.5C139.279,49.939 140.328,49.258 141.222,48.457C142.117,47.656 142.751,46.882 143.125,46.134L144.506,46.134L144.506,63.637Z" style="fill-rule:nonzero;"/>
    </g>
    <g id="path135" transform="matrix(1,0,0,1,1.65646,27.7461)">
        <path d="M368.995,72.06L368.995,74.123L357.48,74.123C357.467,73.602 357.547,73.108 357.72,72.641C358.014,71.854 358.481,71.079 359.122,70.318C359.776,69.557 360.711,68.676 361.926,67.675C363.822,66.126 365.103,64.898 365.771,63.99C366.438,63.082 366.772,62.221 366.772,61.406C366.772,60.565 366.465,59.851 365.851,59.264C365.25,58.676 364.462,58.382 363.488,58.382C362.46,58.382 361.632,58.696 361.005,59.324C360.39,59.938 360.083,60.792 360.083,61.887L357.88,61.667C358.027,60.025 358.595,58.776 359.583,57.922C360.571,57.054 361.892,56.62 363.548,56.62C365.217,56.62 366.538,57.087 367.513,58.022C368.488,58.943 368.975,60.091 368.975,61.467C368.975,62.161 368.828,62.848 368.534,63.529C368.254,64.197 367.78,64.904 367.113,65.652C366.458,66.386 365.364,67.408 363.828,68.716C362.547,69.797 361.719,70.532 361.345,70.919C360.985,71.293 360.684,71.673 360.444,72.06L368.995,72.06Z" style="fill-rule:nonzero;"/>
    </g>
    <g id="path137" transform="matrix(1,0,0,1,10,27)">
        <path d="M179.229,192.471L181.372,192.191C181.612,193.405 182.026,194.28 182.614,194.814C183.214,195.348 183.935,195.615 184.776,195.615C185.791,195.615 186.646,195.268 187.34,194.574C188.034,193.866 188.381,192.998 188.381,191.97C188.381,190.996 188.054,190.188 187.4,189.547C186.759,188.906 185.945,188.586 184.957,188.586C184.556,188.586 184.055,188.666 183.455,188.826L183.695,186.944C183.829,186.957 183.942,186.964 184.035,186.964C184.943,186.964 185.758,186.73 186.479,186.263C187.213,185.782 187.58,185.048 187.58,184.06C187.58,183.272 187.313,182.625 186.779,182.117C186.258,181.597 185.577,181.336 184.736,181.336C183.909,181.336 183.214,181.597 182.654,182.117C182.106,182.638 181.752,183.426 181.592,184.48L179.449,184.1C179.703,182.658 180.291,181.543 181.212,180.755C182.146,179.968 183.308,179.574 184.696,179.574C185.644,179.574 186.519,179.781 187.32,180.195C188.121,180.595 188.728,181.149 189.142,181.857C189.569,182.565 189.783,183.312 189.783,184.1C189.783,184.861 189.583,185.548 189.182,186.163C188.782,186.777 188.181,187.271 187.38,187.645C188.421,187.872 189.222,188.365 189.783,189.126C190.357,189.874 190.644,190.809 190.644,191.93C190.644,193.452 190.09,194.741 188.982,195.795C187.874,196.85 186.472,197.377 184.776,197.377C183.241,197.377 181.966,196.923 180.951,196.016C179.95,195.108 179.376,193.926 179.229,192.471L179.229,192.471Z" style="fill-rule:nonzero;"/>
    </g>
    <g id="path139" transform="matrix(1,0,0,1,0,27)">
        <path d="M285.387,197.077L285.387,192.911L277.817,192.911L277.817,190.949L285.787,179.654L287.53,179.654L287.53,190.949L289.893,190.949L289.893,192.911L287.53,192.911L287.53,197.077L285.387,197.077ZM285.387,190.949L285.387,183.079L279.94,190.949L285.387,190.949Z" style="fill-rule:nonzero;"/>
    </g>
    <g id="path141" transform="matrix(1,0,0,1,50.1087,-139.973)">
        <path d="M125.439,579.559L123.296,579.559L123.296,565.921C122.789,566.415 122.114,566.909 121.273,567.403C120.432,567.884 119.678,568.251 119.01,568.505L119.01,566.422C120.212,565.861 121.26,565.18 122.154,564.379C123.049,563.578 123.683,562.804 124.057,562.056L125.439,562.056L125.439,579.559Z" style="fill-rule:nonzero;"/>
    </g>
    <g id="path143" transform="matrix(1,0,0,1,144.528,-117.034)">
        <path d="M337.75,461.976L337.75,464.039L326.235,464.039C326.221,463.518 326.301,463.024 326.475,462.557C326.769,461.769 327.236,460.995 327.877,460.234C328.531,459.473 329.465,458.592 330.68,457.591C332.576,456.042 333.858,454.814 334.525,453.906C335.193,452.998 335.527,452.137 335.527,451.322C335.527,450.481 335.22,449.767 334.606,449.18C334.005,448.592 333.217,448.298 332.242,448.298C331.214,448.298 330.387,448.612 329.759,449.24C329.145,449.854 328.838,450.708 328.838,451.803L326.635,451.583C326.782,449.941 327.349,448.692 328.337,447.838C329.325,446.97 330.647,446.536 332.303,446.536C333.971,446.536 335.293,447.003 336.268,447.938C337.242,448.859 337.73,450.007 337.73,451.382C337.73,452.077 337.583,452.764 337.289,453.445C337.009,454.113 336.535,454.82 335.867,455.568C335.213,456.302 334.118,457.324 332.583,458.632C331.301,459.713 330.473,460.448 330.1,460.835C329.739,461.209 329.439,461.589 329.198,461.976L337.75,461.976Z" style="fill-rule:nonzero;"/>
    </g>
    <g id="path145" transform="matrix(1,0,0,1,10,1.00003)">
        <path d="M179.229,557.757L181.372,557.477C181.612,558.692 182.026,559.566 182.614,560.1C183.214,560.634 183.935,560.901 184.776,560.901C185.791,560.901 186.646,560.554 187.34,559.86C188.034,559.152 188.381,558.284 188.381,557.256C188.381,556.282 188.054,555.474 187.4,554.833C186.759,554.192 185.945,553.872 184.957,553.872C184.556,553.872 184.055,553.952 183.455,554.112L183.695,552.23C183.828,552.243 183.942,552.25 184.035,552.25C184.943,552.25 185.758,552.016 186.479,551.549C187.213,551.068 187.58,550.334 187.58,549.346C187.58,548.558 187.313,547.911 186.779,547.403C186.258,546.883 185.577,546.622 184.736,546.622C183.909,546.622 183.214,546.883 182.654,547.403C182.106,547.924 181.752,548.712 181.592,549.767L179.449,549.386C179.703,547.944 180.291,546.829 181.212,546.042C182.146,545.254 183.308,544.86 184.696,544.86C185.644,544.86 186.519,545.067 187.32,545.481C188.121,545.881 188.728,546.436 189.142,547.143C189.569,547.851 189.783,548.598 189.783,549.386C189.783,550.147 189.583,550.835 189.182,551.449C188.782,552.063 188.181,552.557 187.38,552.931C188.421,553.158 189.222,553.652 189.783,554.413C190.357,555.16 190.644,556.095 190.644,557.216C190.644,558.738 190.09,560.027 188.982,561.081C187.874,562.136 186.472,562.664 184.776,562.664C183.241,562.664 181.966,562.21 180.951,561.302C179.95,560.394 179.376,559.212 179.229,557.757L179.229,557.757Z" style="fill-rule:nonzero;"/>
    </g>
    <g id="path147" transform="matrix(1,0,0,1,0,1.30038)">
        <path d="M285.387,562.363L285.387,558.198L277.817,558.198L277.817,556.235L285.787,544.94L287.53,544.94L287.53,556.235L289.893,556.235L289.893,558.198L287.53,558.198L287.53,562.363L285.387,562.363ZM285.387,556.235L285.387,548.365L279.94,556.235L285.387,556.235Z" style="fill-rule:nonzero;"/>
    </g>
    <g id="path149" transform="matrix(1,0,0,1,86.9655,-30.4828)">
        <path d="M299.408,332.213L301.671,332.013C301.831,333.107 302.212,333.935 302.812,334.496C303.427,335.043 304.161,335.317 305.015,335.317C306.043,335.317 306.911,334.93 307.619,334.155C308.34,333.381 308.7,332.346 308.7,331.051C308.7,329.836 308.353,328.875 307.659,328.167C306.978,327.46 306.083,327.106 304.975,327.106C304.294,327.106 303.674,327.266 303.113,327.587C302.565,327.894 302.131,328.301 301.811,328.808L299.788,328.548L301.491,319.576L310.162,319.576L310.162,321.639L303.193,321.639L302.252,326.305C303.306,325.584 304.408,325.224 305.556,325.224C307.078,325.224 308.36,325.751 309.401,326.806C310.456,327.86 310.983,329.215 310.983,330.871C310.983,332.446 310.523,333.808 309.601,334.956C308.48,336.372 306.951,337.079 305.015,337.079C303.427,337.079 302.131,336.639 301.13,335.757C300.129,334.863 299.555,333.681 299.408,332.213Z" style="fill-rule:nonzero;"/>
    </g>
    <g id="path151" transform="matrix(1,0,0,1,0,27)">
        <path d="M397.517,183.92L395.394,184.08C395.207,183.239 394.934,182.631 394.573,182.257C393.999,181.643 393.291,181.336 392.45,181.336C391.756,181.336 391.155,181.523 390.648,181.897C389.967,182.391 389.433,183.112 389.046,184.06C388.659,184.994 388.458,186.336 388.445,188.085C388.966,187.297 389.593,186.717 390.328,186.343C391.075,185.956 391.856,185.762 392.671,185.762C394.099,185.762 395.314,186.289 396.315,187.344C397.317,188.399 397.817,189.754 397.817,191.41C397.817,192.504 397.584,193.526 397.117,194.474C396.649,195.408 396.002,196.129 395.174,196.636C394.346,197.13 393.412,197.377 392.37,197.377C390.581,197.377 389.126,196.723 388.005,195.415C386.883,194.093 386.322,191.93 386.322,188.926C386.322,185.548 386.943,183.099 388.185,181.577C389.266,180.241 390.728,179.574 392.571,179.574C393.946,179.574 395.067,179.961 395.935,180.735C396.816,181.496 397.343,182.558 397.517,183.92ZM388.786,191.43C388.786,192.164 388.939,192.871 389.246,193.552C389.567,194.22 390.007,194.734 390.568,195.094C391.129,195.441 391.716,195.615 392.33,195.615C393.238,195.615 394.012,195.255 394.653,194.534C395.307,193.799 395.635,192.805 395.635,191.55C395.635,190.348 395.314,189.4 394.673,188.706C394.032,188.012 393.225,187.665 392.25,187.665C391.289,187.665 390.468,188.012 389.787,188.706C389.119,189.4 388.786,190.308 388.786,191.43ZM546.015,181.937L546.015,179.874L557.29,179.874L557.29,181.537C556.182,182.711 555.08,184.28 553.986,186.243C552.904,188.205 552.063,190.221 551.462,192.291C551.035,193.746 550.761,195.341 550.641,197.077L548.438,197.077C548.465,195.702 548.732,194.046 549.239,192.11C549.76,190.161 550.501,188.285 551.462,186.483C552.437,184.681 553.465,183.165 554.546,181.937L546.015,181.937ZM708.612,187.625C707.717,187.304 707.057,186.843 706.629,186.243C706.202,185.629 705.988,184.901 705.988,184.06C705.988,182.791 706.442,181.73 707.35,180.876C708.271,180.008 709.486,179.574 710.995,179.574C712.517,179.574 713.739,180.015 714.66,180.896C715.594,181.777 716.062,182.852 716.062,184.12C716.062,184.934 715.848,185.642 715.421,186.243C715.007,186.843 714.366,187.304 713.498,187.625C714.566,187.972 715.381,188.532 715.942,189.307C716.502,190.081 716.783,191.009 716.783,192.09C716.783,193.586 716.255,194.841 715.201,195.855C714.146,196.87 712.757,197.377 711.035,197.377C709.313,197.377 707.924,196.87 706.87,195.855C705.815,194.827 705.288,193.552 705.288,192.03C705.288,190.895 705.575,189.948 706.149,189.187C706.723,188.426 707.544,187.905 708.612,187.625ZM708.191,184C708.191,184.828 708.452,185.502 708.972,186.022C709.506,186.543 710.201,186.803 711.055,186.803C711.87,186.803 712.537,186.543 713.058,186.022C713.592,185.502 713.859,184.868 713.859,184.12C713.859,183.332 713.585,182.671 713.038,182.137C712.504,181.603 711.829,181.336 711.015,181.336C710.201,181.336 709.526,181.597 708.992,182.117C708.458,182.638 708.191,183.265 708.191,184ZM707.49,192.05C707.49,192.664 707.631,193.259 707.911,193.833C708.205,194.393 708.639,194.834 709.213,195.154C709.787,195.462 710.401,195.615 711.055,195.615C712.083,195.615 712.931,195.288 713.598,194.634C714.266,193.966 714.6,193.125 714.6,192.11C714.6,191.082 714.253,190.235 713.558,189.567C712.878,188.886 712.023,188.546 710.995,188.546C709.98,188.546 709.139,188.88 708.472,189.547C707.818,190.215 707.49,191.049 707.49,192.05Z" style="fill-rule:nonzero;"/>
    </g>
    <g id="path153" transform="matrix(1,0,0,1,0,1)">
        <path d="M397.517,549.206L395.394,549.366C395.207,548.525 394.934,547.918 394.573,547.544C393.999,546.93 393.291,546.622 392.45,546.622C391.756,546.622 391.155,546.809 390.648,547.183C389.967,547.677 389.433,548.398 389.046,549.346C388.659,550.281 388.458,551.622 388.445,553.371C388.966,552.584 389.593,552.003 390.328,551.629C391.075,551.242 391.856,551.048 392.671,551.048C394.099,551.048 395.314,551.576 396.315,552.63C397.317,553.685 397.817,555.04 397.817,556.696C397.817,557.791 397.584,558.812 397.117,559.76C396.649,560.694 396.002,561.415 395.174,561.923C394.346,562.417 393.412,562.664 392.37,562.664C390.581,562.664 389.126,562.009 388.005,560.701C386.883,559.379 386.322,557.216 386.322,554.212C386.322,550.835 386.943,548.385 388.185,546.863C389.266,545.528 390.728,544.86 392.571,544.86C393.946,544.86 395.067,545.247 395.935,546.022C396.816,546.783 397.344,547.844 397.517,549.206ZM388.786,556.716C388.786,557.45 388.939,558.158 389.246,558.839C389.567,559.506 390.007,560.02 390.568,560.381C391.129,560.728 391.716,560.901 392.33,560.901C393.238,560.901 394.012,560.541 394.653,559.82C395.307,559.086 395.635,558.091 395.635,556.836C395.635,555.634 395.314,554.686 394.673,553.992C394.032,553.298 393.225,552.951 392.25,552.951C391.289,552.951 390.468,553.298 389.787,553.992C389.119,554.686 388.786,555.594 388.786,556.716ZM546.015,547.223L546.015,545.161L557.29,545.161L557.29,546.823C556.182,547.998 555.08,549.566 553.986,551.529C552.904,553.492 552.063,555.508 551.462,557.577C551.035,559.032 550.761,560.628 550.641,562.363L548.438,562.363C548.465,560.988 548.732,559.333 549.239,557.397C549.76,555.447 550.501,553.572 551.462,551.769C552.437,549.967 553.465,548.452 554.546,547.223L546.015,547.223ZM708.612,552.911C707.717,552.59 707.057,552.13 706.629,551.529C706.202,550.915 705.988,550.187 705.988,549.346C705.988,548.078 706.442,547.016 707.35,546.162C708.271,545.294 709.486,544.86 710.995,544.86C712.517,544.86 713.739,545.301 714.66,546.182C715.594,547.063 716.062,548.138 716.062,549.406C716.062,550.221 715.848,550.928 715.421,551.529C715.007,552.13 714.366,552.59 713.498,552.911C714.566,553.258 715.381,553.819 715.942,554.593C716.502,555.367 716.783,556.295 716.783,557.377C716.783,558.872 716.255,560.127 715.201,561.142C714.146,562.156 712.757,562.664 711.035,562.664C709.313,562.664 707.924,562.156 706.87,561.142C705.815,560.114 705.288,558.839 705.288,557.317C705.288,556.182 705.575,555.234 706.149,554.473C706.723,553.712 707.544,553.191 708.612,552.911ZM708.191,549.286C708.191,550.114 708.452,550.788 708.972,551.309C709.506,551.829 710.201,552.09 711.055,552.09C711.87,552.09 712.537,551.829 713.058,551.309C713.592,550.788 713.859,550.154 713.859,549.406C713.859,548.618 713.585,547.958 713.038,547.424C712.504,546.889 711.829,546.622 711.015,546.622C710.201,546.622 709.526,546.883 708.992,547.404C708.458,547.924 708.191,548.552 708.191,549.286ZM707.49,557.337C707.49,557.951 707.631,558.545 707.911,559.119C708.205,559.68 708.639,560.12 709.213,560.441C709.787,560.748 710.401,560.901 711.055,560.901C712.083,560.901 712.931,560.574 713.598,559.92C714.266,559.252 714.6,558.411 714.6,557.397C714.6,556.369 714.253,555.521 713.558,554.853C712.878,554.172 712.023,553.832 710.995,553.832C709.98,553.832 709.139,554.166 708.472,554.833C707.818,555.501 707.49,556.335 707.49,557.337Z" style="fill-rule:nonzero;"/>
    </g>
    <g id="path43" transform="matrix(1,0,0,1,7,27)">
        <rect x="170.6" y="138.252" width="38.713" height="32.617" style="fill:rgb(255,153,0);fill-rule:nonzero;stroke:black;stroke-width:2.56px;"/>
    </g>
    <g id="path65" transform="matrix(1,0,0,1,7,0)">
        <rect x="170.6" y="507.272" width="38.713" height="32.617" style="fill:rgb(255,153,0);fill-rule:nonzero;stroke:black;stroke-width:2.56px;"/>
    </g>
    <g id="path611" serif:id="path61" transform="matrix(1,0,0,1,25.1888,374.335)">
        <path d="M119.672,113.807C123.067,125.35 172.976,154.548 193.007,140.288C213.039,126.028 239.861,48.957 239.861,28.247C239.861,7.536 204.211,8.895 193.007,16.025C181.804,23.155 184.861,54.73 172.638,71.027C160.416,87.324 116.277,102.263 119.672,113.807Z" style="fill:rgb(255,255,0);fill-rule:nonzero;stroke:black;stroke-width:2.56px;"/>
    </g>
    <g transform="matrix(1,0,0,1,-181.232,374.899)">
        <path d="M445.872,70.976L445.872,61.635L497.999,61.635L497.999,52.961L511.344,66.306L497.999,79.65L497.999,70.976L445.872,70.976Z" style="fill:rgb(235,235,235);stroke:black;stroke-width:2px;stroke-linecap:round;stroke-miterlimit:1.5;"/>
    </g>
</svg>
