<?xml version="1.0" encoding="utf-8"?>
<!-- Generator: Adobe Illustrator 16.0.4, SVG Export Plug-In . SVG Version: 6.00 Build 0)  -->
<!DOCTYPE svg PUBLIC "-//W3C//DTD SVG 1.1//EN" "http://www.w3.org/Graphics/SVG/1.1/DTD/svg11.dtd">
<svg version="1.1"
	 id="svg3301" inkscape:output_extension="org.inkscape.output.svg.inkscape" sodipodi:docname="Punnett Square.svg" inkscape:version="0.46" sodipodi:version="0.32" xmlns:rdf="http://www.w3.org/1999/02/22-rdf-syntax-ns#" xmlns:sodipodi="http://sodipodi.sourceforge.net/DTD/sodipodi-0.dtd" xmlns:svg="http://www.w3.org/2000/svg" xmlns:dc="http://purl.org/dc/elements/1.1/" xmlns:cc="http://creativecommons.org/ns#" xmlns:inkscape="http://www.inkscape.org/namespaces/inkscape"
	 xmlns="http://www.w3.org/2000/svg" xmlns:xlink="http://www.w3.org/1999/xlink" x="0px" y="0px" width="1200px" height="1200px"
	 viewBox="0 0 1200 1200" enable-background="new 0 0 1200 1200" xml:space="preserve">
<defs>
	
	
		<inkscape:perspective  id="perspective3309" inkscape:persp3d-origin="372.04724 : 350.78739 : 1" inkscape:vp_z="744.09448 : 526.18109 : 1" inkscape:vp_y="0 : 1000 : 0" inkscape:vp_x="0 : 526.18109 : 1" sodipodi:type="inkscape:persp3d">
		</inkscape:perspective>
	
		<inkscape:perspective  id="perspective3318" inkscape:persp3d-origin="372.04724 : 350.78739 : 1" inkscape:vp_z="744.09448 : 526.18109 : 1" inkscape:vp_y="0 : 1000 : 0" inkscape:vp_x="0 : 526.18109 : 1" sodipodi:type="inkscape:persp3d">
		</inkscape:perspective>
	
		<inkscape:perspective  id="perspective3331" inkscape:persp3d-origin="372.04724 : 350.78739 : 1" inkscape:vp_z="744.09448 : 526.18109 : 1" inkscape:vp_y="0 : 1000 : 0" inkscape:vp_x="0 : 526.18109 : 1" sodipodi:type="inkscape:persp3d">
		</inkscape:perspective>
</defs>
<sodipodi:namedview  id="base" objecttolerance="10" gridtolerance="10000" guidetolerance="10" bordercolor="#666666" borderopacity="1.0" pagecolor="#ffffff" showgrid="false" inkscape:zoom="0.25" inkscape:cy="231.68236" inkscape:cx="846.47474" showguides="true" inkscape:window-y="-4" inkscape:window-x="-4" inkscape:window-height="968" inkscape:window-width="1280" inkscape:guide-bbox="true" inkscape:current-layer="layer1" inkscape:document-units="px" inkscape:pageshadow="2" inkscape:pageopacity="0.0">
	</sodipodi:namedview>
<path id="path3999" sodipodi:nodetypes="ccccc" fill="#FFFFFF" stroke="#000000" stroke-width="5" stroke-linecap="round" d="
	M302.717,273.386h432.344v432.348H302.717V273.386z"/>
<path id="path4001" sodipodi:nodetypes="ccccc" fill="#FFFFFF" stroke="#000000" stroke-width="5" stroke-linecap="round" d="
	M735.064,273.386h432.344v432.348H735.064V273.386z"/>
<path id="path4003" sodipodi:nodetypes="ccccc" fill="#FFFFFF" stroke="#000000" stroke-width="5" stroke-linecap="round" d="
	M735.064,705.733h432.344v432.347H735.064V705.733z"/>
<path id="path4005" sodipodi:nodetypes="ccccc" fill="#FFFFFF" stroke="#000000" stroke-width="5" stroke-linecap="round" d="
	M302.717,705.733h432.344v432.347H302.717V705.733z"/>
<g>
	<path id="path3339" fill="#D6AB00" stroke="#000000" d="M827.63,80.4c2.483-1.529,5.803-1.407,8.546,2.957
		c3.725,5.925,4.428,8.23,3.379,9.225c7.021,2.321,3.046,10.741-1.211,23.305l-13.499-8.218c1.488-6.411-0.377-15.3,9.236-15.725
		c-1.982-1.915-4.243-4.966-9.956-4.454C823.489,85.17,825.147,81.93,827.63,80.4z"/>
	<path id="path3337" sodipodi:nodetypes="csssssssssssscsc" fill="#FFCC00" stroke="#000000" d="M827.831,106.191
		c-4.896,0-11.199,3.058-18.568,10.887c-4.647,4.938-13.832,18.531-29.511,29.842c-2.063,1.489-7.077,1.599-11.439,4.808
		c-4.637,3.411-6.601,9.01-8.068,9.947c-1.643,1.049-7.92,0.787-13.097,3.703c-4.912,2.766-7.641,7.554-9.727,8.842
		c-2.234,1.38-7.444,1.114-11.937,3.26c-5.765,2.755-9.153,7.886-11.329,9.229c-2.214,1.366-7.793,0.99-12.545,3.261
		c-5.575,2.664-8.832,7.841-11.163,8.953c-2.798,1.333-9.504,0.96-15.474,3.813c-7.41,3.541-10.751,10.013-13.761,11.771
		c-32.905,19.226-58.604,30.217-42.663,31.224c167.025,13.844,213.925-100.91,219.284-117.434
		C841.351,117.453,837.177,106.192,827.831,106.191z"/>
	<path id="path3344" fill="#FFFFFF" fill-opacity="0.7843" d="M635.544,238.132c47.785,0,87.979-7.146,118.794-21.436
		c-39.301,22.776-66.989,25.902-117.454,25.902C631.078,242.151,627.059,237.686,635.544,238.132z"/>
	<path id="path3855" fill-opacity="0.5882" d="M668.009,223.035L668.009,223.035c11.983-1.339,19.183-3.267,22.804-11.085
		C686.326,216.045,673.532,222.193,668.009,223.035z"/>
	<path id="path3857" fill="#FFFFFF" fill-opacity="0.7843" d="M666.65,215.129c6.92-4.904,12.131-8.028,22.174-9.15
		C681.156,212.715,673.747,214.655,666.65,215.129z"/>
	
		<path id="path3875" inkscape:radius="-0.27742612" sodipodi:type="inkscape:offset" inkscape:original="M -152.53125 434.28125 C -155.06772 436.59747 -162.3143 440.08656 -165.4375 440.5625 C -158.66112 439.80553 -154.57843 438.70273 -152.53125 434.28125 z " fill-opacity="0.5882" d="
		M741.679,187.545c-2.407,1.72-5.698,3.573-9.057,5.206c-1.95,0.949-3.849,1.721-5.688,2.439c3.052-0.541,5.843-1.196,8.065-2.166
		C737.864,191.775,740.012,190.045,741.679,187.545z"/>
	
		<path id="path3873" inkscape:radius="-0.46671128" sodipodi:type="inkscape:offset" inkscape:original="M -153.125 430.03125 C -158.80395 430.66564 -161.74347 432.41453 -165.65625 435.1875 C -161.6434 434.91891 -157.46113 433.83976 -153.125 430.03125 z " fill="#FFFFFF" fill-opacity="0.7843" d="
		M737.907,180.815c-6.248,1.575-10.534,3.986-15.01,7.432C727.86,187.196,732.88,185.064,737.907,180.815z"/>
	
		<path id="path3877" inkscape:radius="-0.12997109" sodipodi:type="inkscape:offset" inkscape:original="M -152.53125 434.28125 C -155.06772 436.59747 -162.3143 440.08656 -165.4375 440.5625 C -158.66112 439.80553 -154.57843 438.70273 -152.53125 434.28125 z " fill-opacity="0.5882" d="
		M719.997,199.657c-2.408,1.944-6.232,4.144-10.224,6.079c-2.972,1.44-5.935,2.672-8.455,3.481
		c4.397-0.604,8.085-1.363,11.053-2.652C715.755,205.094,718.226,202.941,719.997,199.657z"/>
	
		<path id="path3879" inkscape:radius="-0.3534351" sodipodi:type="inkscape:offset" inkscape:original="M -153.125 430.03125 C -158.80395 430.66564 -161.74347 432.41453 -165.65625 435.1875 C -161.6434 434.91891 -157.46113 433.83976 -153.125 430.03125 z " fill="#FFFFFF" fill-opacity="0.7843" d="
		M715.334,193.06c-7.303,1.593-11.926,4.221-17.011,8.149C703.915,200.198,709.627,198.106,715.334,193.06z"/>
	
		<path id="path3895" inkscape:radius="-0.37662885" sodipodi:type="inkscape:offset" inkscape:original="M -152.53125 434.28125 C -155.06772 436.59747 -162.3143 440.08656 -165.4375 440.5625 C -158.66112 439.80553 -154.57843 438.70273 -152.53125 434.28125 z " fill-opacity="0.5882" d="
		M761.517,174.804c-2.366,1.778-5.248,3.619-8.53,5.326c-1.472,0.765-2.878,1.415-4.31,2.056c2.457-0.563,4.617-1.251,6.464-2.116
		C757.837,178.806,759.958,177.161,761.517,174.804z"/>
	
		<path id="path3897" inkscape:radius="-0.68535709" sodipodi:type="inkscape:offset" inkscape:original="M -153.125 430.03125 C -158.80395 430.66564 -161.74347 432.41453 -165.65625 435.1875 C -161.6434 434.91891 -157.46113 433.83976 -153.125 430.03125 z " fill="#FFFFFF" fill-opacity="0.7843" d="
		M757.265,168.992c-4.74,1.617-8.285,3.733-11.772,6.559C749.435,174.356,753.377,172.292,757.265,168.992z"/>
	
		<path id="path3899" inkscape:radius="-0.50707257" sodipodi:type="inkscape:offset" inkscape:original="M -152.53125 434.28125 C -155.06772 436.59747 -162.3143 440.08656 -165.4375 440.5625 C -158.66112 439.80553 -154.57843 438.70273 -152.53125 434.28125 z " fill-opacity="0.5882" d="
		M779.536,162.604c-2.062,1.375-4.383,2.722-6.854,4.007c-0.464,0.241-0.901,0.415-1.364,0.646c1.129-0.358,2.382-0.639,3.342-1.089
		C776.631,165.245,778.203,164.063,779.536,162.604z"/>
	
		<path id="path3901" inkscape:radius="-0.88867521" sodipodi:type="inkscape:offset" inkscape:original="M -153.125 430.03125 C -158.80395 430.66564 -161.74347 432.41453 -165.65625 435.1875 C -161.6434 434.91891 -157.46113 433.83976 -153.125 430.03125 z " fill="#FFFFFF" fill-opacity="0.7843" d="
		M776.85,157.606c-2.835,1.086-5.131,2.661-7.363,4.226C771.964,160.809,774.395,159.522,776.85,157.606z"/>
</g>
<g>
	<path id="path3920" fill="#1B793C" stroke="#000000" d="M249.131,623.531c2.483-1.529,5.802-1.407,8.546,2.957
		c3.725,5.925,4.427,8.229,3.379,9.226c7.02,2.321,3.045,10.74-1.211,23.305l-13.499-8.219c1.488-6.411-0.377-15.3,9.236-15.725
		c-1.982-1.915-4.244-4.966-9.957-4.454C244.99,628.302,246.648,625.061,249.131,623.531z"/>
	<path id="path3922" sodipodi:nodetypes="csssssssssssscsc" fill="#26A854" stroke="#000000" d="M249.332,649.322
		c-4.895,0-11.2,3.058-18.568,10.887c-4.647,4.938-13.832,18.531-29.51,29.842c-2.064,1.489-7.078,1.6-11.439,4.809
		c-4.637,3.411-6.601,9.01-8.068,9.947c-1.643,1.049-7.92,0.787-13.098,3.702c-4.912,2.767-7.641,7.555-9.726,8.843
		c-2.234,1.379-7.445,1.113-11.937,3.26c-5.764,2.755-9.152,7.887-11.329,9.229c-2.214,1.366-7.793,0.989-12.545,3.261
		c-5.575,2.663-8.832,7.841-11.163,8.952c-2.798,1.334-9.504,0.96-15.474,3.813c-7.41,3.54-10.751,10.013-13.76,11.771
		c-32.906,19.226-58.604,30.217-42.663,31.224c167.025,13.845,213.924-100.91,219.284-117.434
		C262.851,660.584,258.677,649.323,249.332,649.322z"/>
	<path id="path3924" fill="#FFFFFF" fill-opacity="0.7843" d="M57.044,781.263c47.786,0,87.979-7.146,118.794-21.437
		c-39.3,22.776-66.989,25.902-117.454,25.902C52.579,785.282,48.56,780.816,57.044,781.263z"/>
	<path id="path3926" fill-opacity="0.5882" d="M89.51,766.166L89.51,766.166c11.983-1.339,19.183-3.267,22.803-11.086
		C107.827,759.177,95.033,765.324,89.51,766.166z"/>
	<path id="path3928" fill="#FFFFFF" fill-opacity="0.7843" d="M88.151,758.261c6.919-4.904,12.131-8.028,22.174-9.15
		C102.657,755.846,95.248,757.785,88.151,758.261z"/>
	
		<path id="path3930" inkscape:radius="-0.27742612" sodipodi:type="inkscape:offset" inkscape:original="M -152.53125 434.28125 C -155.06772 436.59747 -162.3143 440.08656 -165.4375 440.5625 C -158.66112 439.80553 -154.57843 438.70273 -152.53125 434.28125 z " fill-opacity="0.5882" d="
		M163.18,730.676c-2.408,1.721-5.699,3.573-9.057,5.206c-1.95,0.949-3.849,1.721-5.689,2.439c3.052-0.541,5.843-1.196,8.066-2.166
		C159.364,734.906,161.513,733.177,163.18,730.676z"/>
	
		<path id="path3932" inkscape:radius="-0.46671128" sodipodi:type="inkscape:offset" inkscape:original="M -153.125 430.03125 C -158.80395 430.66564 -161.74347 432.41453 -165.65625 435.1875 C -161.6434 434.91891 -157.46113 433.83976 -153.125 430.03125 z " fill="#FFFFFF" fill-opacity="0.7843" d="
		M159.408,723.946c-6.248,1.574-10.534,3.986-15.01,7.432C149.361,730.327,154.38,728.195,159.408,723.946z"/>
	
		<path id="path3934" inkscape:radius="-0.12997109" sodipodi:type="inkscape:offset" inkscape:original="M -152.53125 434.28125 C -155.06772 436.59747 -162.3143 440.08656 -165.4375 440.5625 C -158.66112 439.80553 -154.57843 438.70273 -152.53125 434.28125 z " fill-opacity="0.5882" d="
		M141.498,742.788c-2.408,1.943-6.232,4.144-10.224,6.079c-2.971,1.44-5.935,2.672-8.455,3.481
		c4.397-0.604,8.085-1.363,11.053-2.652C137.255,748.225,139.727,746.072,141.498,742.788z"/>
	
		<path id="path3936" inkscape:radius="-0.3534351" sodipodi:type="inkscape:offset" inkscape:original="M -153.125 430.03125 C -158.80395 430.66564 -161.74347 432.41453 -165.65625 435.1875 C -161.6434 434.91891 -157.46113 433.83976 -153.125 430.03125 z " fill="#FFFFFF" fill-opacity="0.7843" d="
		M136.835,736.191c-7.304,1.593-11.926,4.221-17.011,8.148C125.416,743.329,131.128,741.237,136.835,736.191z"/>
	
		<path id="path3938" inkscape:radius="-0.37662885" sodipodi:type="inkscape:offset" inkscape:original="M -152.53125 434.28125 C -155.06772 436.59747 -162.3143 440.08656 -165.4375 440.5625 C -158.66112 439.80553 -154.57843 438.70273 -152.53125 434.28125 z " fill-opacity="0.5882" d="
		M183.018,717.935c-2.366,1.778-5.248,3.619-8.53,5.325c-1.473,0.766-2.878,1.416-4.31,2.057c2.457-0.563,4.617-1.251,6.464-2.116
		C179.337,721.938,181.458,720.292,183.018,717.935z"/>
	
		<path id="path3940" inkscape:radius="-0.68535709" sodipodi:type="inkscape:offset" inkscape:original="M -153.125 430.03125 C -158.80395 430.66564 -161.74347 432.41453 -165.65625 435.1875 C -161.6434 434.91891 -157.46113 433.83976 -153.125 430.03125 z " fill="#FFFFFF" fill-opacity="0.7843" d="
		M178.765,712.123c-4.74,1.617-8.285,3.732-11.772,6.56C170.936,717.487,174.878,715.423,178.765,712.123z"/>
	
		<path id="path3942" inkscape:radius="-0.50707257" sodipodi:type="inkscape:offset" inkscape:original="M -152.53125 434.28125 C -155.06772 436.59747 -162.3143 440.08656 -165.4375 440.5625 C -158.66112 439.80553 -154.57843 438.70273 -152.53125 434.28125 z " fill-opacity="0.5882" d="
		M201.037,705.734c-2.062,1.376-4.383,2.722-6.854,4.007c-0.463,0.241-0.9,0.415-1.364,0.646c1.129-0.358,2.381-0.639,3.342-1.089
		C198.131,708.376,199.704,707.194,201.037,705.734z"/>
	
		<path id="path3944" inkscape:radius="-0.88867521" sodipodi:type="inkscape:offset" inkscape:original="M -153.125 430.03125 C -158.80395 430.66564 -161.74347 432.41453 -165.65625 435.1875 C -161.6434 434.91891 -157.46113 433.83976 -153.125 430.03125 z " fill="#FFFFFF" fill-opacity="0.7843" d="
		M198.351,700.737c-2.836,1.086-5.131,2.66-7.364,4.226C193.465,703.939,195.895,702.653,198.351,700.737z"/>
</g>
<path id="path4101" fill="#1B793C" stroke="#000000" d="M695.51,300.107c1.105-0.681,2.583-0.626,3.805,1.316
	c1.658,2.637,1.971,3.664,1.504,4.106c3.125,1.034,1.355,4.782-0.539,10.375l-6.009-3.659c0.662-2.854-0.168-6.81,4.111-7
	c-0.883-0.853-1.889-2.21-4.432-1.983C693.667,302.23,694.405,300.788,695.51,300.107z"/>
<path id="path4103" sodipodi:nodetypes="csssssssssssscsc" fill="#26A854" stroke="#000000" d="M695.6,311.588
	c-2.179,0-4.985,1.361-8.266,4.847c-2.069,2.197-6.157,8.249-13.137,13.284c-0.919,0.662-3.15,0.712-5.093,2.14
	c-2.063,1.519-2.938,4.011-3.591,4.429c-0.731,0.467-3.526,0.35-5.831,1.647c-2.187,1.231-3.401,3.363-4.329,3.937
	c-0.995,0.614-3.314,0.496-5.313,1.451c-2.566,1.227-4.075,3.511-5.044,4.108c-0.985,0.608-3.469,0.44-5.584,1.451
	c-2.481,1.187-3.932,3.491-4.969,3.985c-1.246,0.594-4.231,0.428-6.889,1.697c-3.298,1.576-4.786,4.458-6.125,5.24
	c-14.648,8.559-26.088,13.451-18.992,13.899c74.352,6.163,95.229-44.921,97.615-52.276
	C701.618,316.601,699.76,311.588,695.6,311.588z"/>
<path id="path4105" fill="#FFFFFF" fill-opacity="0.7843" d="M610.003,370.321c21.271,0,39.164-3.181,52.881-9.542
	c-17.494,10.139-29.82,11.53-52.285,11.53C608.015,372.11,606.226,370.123,610.003,370.321z"/>
<path id="path4107" fill-opacity="0.5882" d="M624.454,363.601L624.454,363.601c5.335-0.596,8.54-1.454,10.151-4.935
	C632.608,360.489,626.913,363.227,624.454,363.601z"/>
<path id="path4109" fill="#FFFFFF" fill-opacity="0.7843" d="M623.85,360.082c3.08-2.183,5.4-3.574,9.871-4.073
	C630.307,359.007,627.009,359.87,623.85,360.082z"/>
<path id="path4111" inkscape:radius="-0.27742612" sodipodi:type="inkscape:offset" inkscape:original="M -152.53125 434.28125 C -155.06772 436.59747 -162.3143 440.08656 -165.4375 440.5625 C -158.66112 439.80553 -154.57843 438.70273 -152.53125 434.28125 z " fill-opacity="0.5882" d="
	M657.249,347.803c-1.072,0.766-2.537,1.591-4.031,2.317c-0.869,0.422-1.714,0.766-2.533,1.086c1.358-0.241,2.602-0.532,3.591-0.964
	C655.551,349.686,656.507,348.916,657.249,347.803z"/>
<path id="path4113" inkscape:radius="-0.46671128" sodipodi:type="inkscape:offset" inkscape:original="M -153.125 430.03125 C -158.80395 430.66564 -161.74347 432.41453 -165.65625 435.1875 C -161.6434 434.91891 -157.46113 433.83976 -153.125 430.03125 z " fill="#FFFFFF" fill-opacity="0.7843" d="
	M655.57,344.807c-2.782,0.701-4.689,1.774-6.682,3.309C651.098,347.647,653.332,346.698,655.57,344.807z"/>
<path id="path4115" inkscape:radius="-0.12997109" sodipodi:type="inkscape:offset" inkscape:original="M -152.53125 434.28125 C -155.06772 436.59747 -162.3143 440.08656 -165.4375 440.5625 C -158.66112 439.80553 -154.57843 438.70273 -152.53125 434.28125 z " fill-opacity="0.5882" d="
	M647.597,353.194c-1.071,0.865-2.774,1.845-4.551,2.706c-1.322,0.642-2.642,1.189-3.764,1.55c1.958-0.27,3.599-0.606,4.92-1.181
	C645.709,355.614,646.809,354.656,647.597,353.194z"/>
<path id="path4117" inkscape:radius="-0.3534351" sodipodi:type="inkscape:offset" inkscape:original="M -153.125 430.03125 C -158.80395 430.66564 -161.74347 432.41453 -165.65625 435.1875 C -161.6434 434.91891 -157.46113 433.83976 -153.125 430.03125 z " fill="#FFFFFF" fill-opacity="0.7843" d="
	M645.521,350.258c-3.251,0.709-5.309,1.879-7.572,3.627C640.438,353.435,642.981,352.504,645.521,350.258z"/>
<path id="path4119" inkscape:radius="-0.37662885" sodipodi:type="inkscape:offset" inkscape:original="M -152.53125 434.28125 C -155.06772 436.59747 -162.3143 440.08656 -165.4375 440.5625 C -158.66112 439.80553 -154.57843 438.70273 -152.53125 434.28125 z " fill-opacity="0.5882" d="
	M666.08,342.131c-1.054,0.791-2.337,1.611-3.798,2.37c-0.655,0.341-1.281,0.63-1.918,0.916c1.093-0.251,2.055-0.558,2.877-0.942
	C664.441,343.912,665.386,343.18,666.08,342.131z"/>
<path id="path4121" inkscape:radius="-0.68535709" sodipodi:type="inkscape:offset" inkscape:original="M -153.125 430.03125 C -158.80395 430.66564 -161.74347 432.41453 -165.65625 435.1875 C -161.6434 434.91891 -157.46113 433.83976 -153.125 430.03125 z " fill="#FFFFFF" fill-opacity="0.7843" d="
	M664.187,339.544c-2.109,0.72-3.688,1.661-5.24,2.92C660.701,341.932,662.456,341.013,664.187,339.544z"/>
<path id="path4123" inkscape:radius="-0.50707257" sodipodi:type="inkscape:offset" inkscape:original="M -152.53125 434.28125 C -155.06772 436.59747 -162.3143 440.08656 -165.4375 440.5625 C -158.66112 439.80553 -154.57843 438.70273 -152.53125 434.28125 z " fill-opacity="0.5882" d="
	M674.101,336.7c-0.917,0.612-1.95,1.211-3.051,1.783c-0.206,0.107-0.4,0.185-0.607,0.288c0.503-0.159,1.061-0.285,1.488-0.485
	C672.808,337.876,673.508,337.35,674.101,336.7z"/>
<path id="path4125" inkscape:radius="-0.88867521" sodipodi:type="inkscape:offset" inkscape:original="M -153.125 430.03125 C -158.80395 430.66564 -161.74347 432.41453 -165.65625 435.1875 C -161.6434 434.91891 -157.46113 433.83976 -153.125 430.03125 z " fill="#FFFFFF" fill-opacity="0.7843" d="
	M672.905,334.476c-1.263,0.483-2.284,1.184-3.278,1.881C670.73,335.901,671.812,335.328,672.905,334.476z"/>
<path id="path4129" fill="#D6AB00" stroke="#000000" d="M695.51,734.354c1.105-0.681,2.583-0.626,3.805,1.316
	c1.658,2.638,1.971,3.664,1.504,4.106c3.125,1.033,1.355,4.781-0.539,10.374l-6.009-3.658c0.662-2.854-0.168-6.811,4.111-7
	c-0.883-0.853-1.889-2.21-4.432-1.982C693.667,736.479,694.405,735.035,695.51,734.354z"/>
<path id="path4131" sodipodi:nodetypes="csssssssssssscsc" fill="#FFCC00" stroke="#000000" d="M695.6,745.836
	c-2.179-0.001-4.985,1.36-8.266,4.846c-2.068,2.198-6.157,8.249-13.137,13.284c-0.919,0.663-3.15,0.712-5.092,2.141
	c-2.064,1.519-2.938,4.011-3.592,4.428c-0.731,0.467-3.526,0.351-5.831,1.648c-2.187,1.231-3.4,3.362-4.329,3.937
	c-0.995,0.614-3.314,0.495-5.313,1.451c-2.566,1.226-4.075,3.511-5.044,4.108c-0.985,0.607-3.469,0.44-5.584,1.451
	c-2.481,1.186-3.932,3.49-4.969,3.985c-1.246,0.594-4.231,0.428-6.889,1.697c-3.298,1.576-4.786,4.457-6.125,5.24
	c-14.648,8.558-26.088,13.451-18.992,13.899c74.352,6.162,95.229-44.921,97.615-52.276
	C701.618,750.849,699.76,745.836,695.6,745.836z"/>
<path id="path4133" fill="#FFFFFF" fill-opacity="0.7843" d="M610.003,804.569c21.271,0,39.164-3.181,52.881-9.543
	c-17.494,10.14-29.82,11.531-52.284,11.531C608.015,806.358,606.226,804.37,610.003,804.569z"/>
<path id="path4135" fill-opacity="0.5882" d="M624.455,797.849L624.455,797.849c5.334-0.596,8.539-1.454,10.15-4.935
	C632.608,794.737,626.913,797.474,624.455,797.849z"/>
<path id="path4137" fill="#FFFFFF" fill-opacity="0.7843" d="M623.85,794.33c3.08-2.184,5.4-3.574,9.871-4.073
	C630.307,793.255,627.009,794.118,623.85,794.33z"/>
<path id="path4139" inkscape:radius="-0.27742612" sodipodi:type="inkscape:offset" inkscape:original="M -152.53125 434.28125 C -155.06772 436.59747 -162.3143 440.08656 -165.4375 440.5625 C -158.66112 439.80553 -154.57843 438.70273 -152.53125 434.28125 z " fill-opacity="0.5882" d="
	M657.249,782.051c-1.072,0.766-2.537,1.59-4.031,2.317c-0.869,0.422-1.714,0.766-2.533,1.085c1.358-0.24,2.602-0.532,3.591-0.964
	C655.551,783.934,656.507,783.163,657.249,782.051z"/>
<path id="path4141" inkscape:radius="-0.46671128" sodipodi:type="inkscape:offset" inkscape:original="M -153.125 430.03125 C -158.80395 430.66564 -161.74347 432.41453 -165.65625 435.1875 C -161.6434 434.91891 -157.46113 433.83976 -153.125 430.03125 z " fill="#FFFFFF" fill-opacity="0.7843" d="
	M655.57,779.055c-2.782,0.701-4.689,1.774-6.682,3.308C651.098,781.895,653.332,780.946,655.57,779.055z"/>
<path id="path4143" inkscape:radius="-0.12997109" sodipodi:type="inkscape:offset" inkscape:original="M -152.53125 434.28125 C -155.06772 436.59747 -162.3143 440.08656 -165.4375 440.5625 C -158.66112 439.80553 -154.57843 438.70273 -152.53125 434.28125 z " fill-opacity="0.5882" d="
	M647.598,787.442c-1.072,0.865-2.775,1.845-4.552,2.706c-1.322,0.641-2.642,1.189-3.764,1.55c1.958-0.27,3.599-0.607,4.92-1.182
	C645.709,789.862,646.809,788.904,647.598,787.442z"/>
<path id="path4145" inkscape:radius="-0.3534351" sodipodi:type="inkscape:offset" inkscape:original="M -153.125 430.03125 C -158.80395 430.66564 -161.74347 432.41453 -165.65625 435.1875 C -161.6434 434.91891 -157.46113 433.83976 -153.125 430.03125 z " fill="#FFFFFF" fill-opacity="0.7843" d="
	M645.521,784.505c-3.251,0.71-5.309,1.879-7.572,3.628C640.438,787.683,642.981,786.752,645.521,784.505z"/>
<path id="path4147" inkscape:radius="-0.37662885" sodipodi:type="inkscape:offset" inkscape:original="M -152.53125 434.28125 C -155.06772 436.59747 -162.3143 440.08656 -165.4375 440.5625 C -158.66112 439.80553 -154.57843 438.70273 -152.53125 434.28125 z " fill-opacity="0.5882" d="
	M666.08,776.379c-1.054,0.791-2.337,1.61-3.798,2.37c-0.655,0.341-1.281,0.63-1.918,0.915c1.093-0.25,2.055-0.557,2.877-0.941
	C664.441,778.16,665.386,777.428,666.08,776.379z"/>
<path id="path4149" inkscape:radius="-0.68535709" sodipodi:type="inkscape:offset" inkscape:original="M -153.125 430.03125 C -158.80395 430.66564 -161.74347 432.41453 -165.65625 435.1875 C -161.6434 434.91891 -157.46113 433.83976 -153.125 430.03125 z " fill="#FFFFFF" fill-opacity="0.7843" d="
	M664.187,773.792c-2.109,0.72-3.688,1.661-5.24,2.919C660.701,776.18,662.456,775.261,664.187,773.792z"/>
<path id="path4151" inkscape:radius="-0.50707257" sodipodi:type="inkscape:offset" inkscape:original="M -152.53125 434.28125 C -155.06772 436.59747 -162.3143 440.08656 -165.4375 440.5625 C -158.66112 439.80553 -154.57843 438.70273 -152.53125 434.28125 z " fill-opacity="0.5882" d="
	M674.101,770.947c-0.917,0.612-1.95,1.212-3.051,1.784c-0.206,0.107-0.4,0.185-0.606,0.287c0.502-0.159,1.06-0.284,1.487-0.484
	C672.808,772.123,673.508,771.598,674.101,770.947z"/>
<path id="path4153" inkscape:radius="-0.88867521" sodipodi:type="inkscape:offset" inkscape:original="M -153.125 430.03125 C -158.80395 430.66564 -161.74347 432.41453 -165.65625 435.1875 C -161.6434 434.91891 -157.46113 433.83976 -153.125 430.03125 z " fill="#FFFFFF" fill-opacity="0.7843" d="
	M672.905,768.723c-1.263,0.483-2.284,1.185-3.278,1.881C670.73,770.148,671.812,769.576,672.905,768.723z"/>
<path id="path4169" fill="#D6AB00" stroke="#000000" d="M1133.51,734.354c1.105-0.681,2.583-0.626,3.805,1.316
	c1.658,2.638,1.971,3.664,1.504,4.106c3.125,1.033,1.355,4.781-0.539,10.374l-6.009-3.658c0.662-2.854-0.168-6.811,4.111-7
	c-0.883-0.853-1.889-2.21-4.432-1.982C1131.667,736.479,1132.405,735.036,1133.51,734.354z"/>
<path id="path4171" sodipodi:nodetypes="csssssssssssscsc" fill="#FFCC00" stroke="#000000" d="M1133.6,745.836
	c-2.179,0-4.985,1.361-8.266,4.846c-2.069,2.198-6.157,8.249-13.137,13.284c-0.919,0.663-3.15,0.712-5.093,2.141
	c-2.063,1.519-2.938,4.011-3.591,4.428c-0.731,0.468-3.526,0.351-5.831,1.648c-2.187,1.231-3.401,3.363-4.329,3.937
	c-0.995,0.614-3.314,0.495-5.313,1.451c-2.566,1.227-4.075,3.511-5.044,4.108c-0.985,0.608-3.469,0.44-5.584,1.451
	c-2.481,1.186-3.932,3.491-4.969,3.985c-1.246,0.594-4.231,0.428-6.889,1.697c-3.298,1.576-4.786,4.457-6.125,5.24
	c-14.648,8.559-26.088,13.451-18.992,13.899c74.352,6.162,95.229-44.921,97.615-52.276
	C1139.618,750.849,1137.76,745.836,1133.6,745.836z"/>
<path id="path4173" fill="#FFFFFF" fill-opacity="0.7843" d="M1048.003,804.569c21.271,0,39.164-3.181,52.881-9.542
	c-17.494,10.139-29.82,11.53-52.285,11.53C1046.015,806.358,1044.226,804.37,1048.003,804.569z"/>
<path id="path4175" fill-opacity="0.5882" d="M1062.455,797.849L1062.455,797.849c5.334-0.596,8.539-1.454,10.15-4.935
	C1070.608,794.737,1064.913,797.474,1062.455,797.849z"/>
<path id="path4177" fill="#FFFFFF" fill-opacity="0.7843" d="M1061.85,794.33c3.08-2.184,5.4-3.574,9.871-4.073
	C1068.307,793.255,1065.009,794.118,1061.85,794.33z"/>
<path id="path4179" inkscape:radius="-0.27742612" sodipodi:type="inkscape:offset" inkscape:original="M -152.53125 434.28125 C -155.06772 436.59747 -162.3143 440.08656 -165.4375 440.5625 C -158.66112 439.80553 -154.57843 438.70273 -152.53125 434.28125 z " fill-opacity="0.5882" d="
	M1095.249,782.051c-1.072,0.766-2.537,1.59-4.031,2.317c-0.868,0.422-1.714,0.766-2.533,1.085c1.358-0.24,2.602-0.532,3.591-0.964
	C1093.551,783.934,1094.507,783.163,1095.249,782.051z"/>
<path id="path4181" inkscape:radius="-0.46671128" sodipodi:type="inkscape:offset" inkscape:original="M -153.125 430.03125 C -158.80395 430.66564 -161.74347 432.41453 -165.65625 435.1875 C -161.6434 434.91891 -157.46113 433.83976 -153.125 430.03125 z " fill="#FFFFFF" fill-opacity="0.7843" d="
	M1093.57,779.055c-2.782,0.701-4.689,1.774-6.682,3.308C1089.098,781.896,1091.332,780.946,1093.57,779.055z"/>
<path id="path4183" inkscape:radius="-0.12997109" sodipodi:type="inkscape:offset" inkscape:original="M -152.53125 434.28125 C -155.06772 436.59747 -162.3143 440.08656 -165.4375 440.5625 C -158.66112 439.80553 -154.57843 438.70273 -152.53125 434.28125 z " fill-opacity="0.5882" d="
	M1085.597,787.442c-1.071,0.865-2.774,1.845-4.551,2.706c-1.322,0.641-2.642,1.189-3.764,1.55c1.958-0.27,3.599-0.606,4.92-1.181
	C1083.709,789.862,1084.809,788.904,1085.597,787.442z"/>
<path id="path4185" inkscape:radius="-0.3534351" sodipodi:type="inkscape:offset" inkscape:original="M -153.125 430.03125 C -158.80395 430.66564 -161.74347 432.41453 -165.65625 435.1875 C -161.6434 434.91891 -157.46113 433.83976 -153.125 430.03125 z " fill="#FFFFFF" fill-opacity="0.7843" d="
	M1083.521,784.506c-3.251,0.709-5.309,1.878-7.572,3.627C1078.438,787.683,1080.981,786.752,1083.521,784.506z"/>
<path id="path4187" inkscape:radius="-0.37662885" sodipodi:type="inkscape:offset" inkscape:original="M -152.53125 434.28125 C -155.06772 436.59747 -162.3143 440.08656 -165.4375 440.5625 C -158.66112 439.80553 -154.57843 438.70273 -152.53125 434.28125 z " fill-opacity="0.5882" d="
	M1104.08,776.379c-1.054,0.791-2.337,1.61-3.798,2.37c-0.655,0.341-1.281,0.63-1.918,0.915c1.093-0.25,2.055-0.557,2.877-0.941
	C1102.441,778.16,1103.386,777.428,1104.08,776.379z"/>
<path id="path4189" inkscape:radius="-0.68535709" sodipodi:type="inkscape:offset" inkscape:original="M -153.125 430.03125 C -158.80395 430.66564 -161.74347 432.41453 -165.65625 435.1875 C -161.6434 434.91891 -157.46113 433.83976 -153.125 430.03125 z " fill="#FFFFFF" fill-opacity="0.7843" d="
	M1102.187,773.792c-2.109,0.72-3.688,1.661-5.24,2.92C1098.701,776.18,1100.456,775.261,1102.187,773.792z"/>
<path id="path4191" inkscape:radius="-0.50707257" sodipodi:type="inkscape:offset" inkscape:original="M -152.53125 434.28125 C -155.06772 436.59747 -162.3143 440.08656 -165.4375 440.5625 C -158.66112 439.80553 -154.57843 438.70273 -152.53125 434.28125 z " fill-opacity="0.5882" d="
	M1112.101,770.947c-0.917,0.612-1.95,1.212-3.051,1.784c-0.206,0.107-0.4,0.185-0.607,0.288c0.503-0.16,1.061-0.285,1.488-0.485
	C1110.808,772.123,1111.508,771.598,1112.101,770.947z"/>
<path id="path4193" inkscape:radius="-0.88867521" sodipodi:type="inkscape:offset" inkscape:original="M -153.125 430.03125 C -158.80395 430.66564 -161.74347 432.41453 -165.65625 435.1875 C -161.6434 434.91891 -157.46113 433.83976 -153.125 430.03125 z " fill="#FFFFFF" fill-opacity="0.7843" d="
	M1110.905,768.723c-1.263,0.484-2.284,1.185-3.278,1.882C1108.73,770.148,1109.812,769.576,1110.905,768.723z"/>
<path id="path4197" fill="#1B793C" stroke="#000000" d="M1133.51,300.107c1.105-0.681,2.583-0.626,3.805,1.316
	c1.658,2.637,1.971,3.664,1.504,4.106c3.125,1.034,1.355,4.782-0.539,10.375l-6.009-3.659c0.662-2.854-0.168-6.81,4.111-7
	c-0.883-0.853-1.889-2.21-4.432-1.983C1131.667,302.23,1132.405,300.788,1133.51,300.107z"/>
<path id="path4199" sodipodi:nodetypes="csssssssssssscsc" fill="#26A854" stroke="#000000" d="M1133.6,311.588
	c-2.179,0-4.985,1.361-8.266,4.847c-2.069,2.197-6.157,8.249-13.137,13.284c-0.919,0.662-3.15,0.712-5.093,2.14
	c-2.063,1.519-2.938,4.011-3.591,4.429c-0.731,0.467-3.526,0.35-5.831,1.647c-2.187,1.231-3.401,3.363-4.329,3.937
	c-0.995,0.614-3.314,0.496-5.313,1.451c-2.566,1.227-4.075,3.511-5.044,4.108c-0.985,0.608-3.469,0.44-5.584,1.451
	c-2.481,1.187-3.932,3.491-4.969,3.985c-1.246,0.594-4.231,0.428-6.889,1.697c-3.298,1.576-4.786,4.458-6.125,5.24
	c-14.648,8.559-26.088,13.451-18.992,13.899c74.352,6.163,95.229-44.921,97.615-52.276
	C1139.618,316.601,1137.76,311.588,1133.6,311.588z"/>
<path id="path4201" fill="#FFFFFF" fill-opacity="0.7843" d="M1048.003,370.321c21.271,0,39.164-3.181,52.881-9.542
	c-17.494,10.139-29.82,11.53-52.285,11.53C1046.015,372.11,1044.226,370.123,1048.003,370.321z"/>
<path id="path4203" fill-opacity="0.5882" d="M1062.455,363.601L1062.455,363.601c5.334-0.596,8.539-1.454,10.15-4.935
	C1070.608,360.489,1064.913,363.227,1062.455,363.601z"/>
<path id="path4205" fill="#FFFFFF" fill-opacity="0.7843" d="M1061.85,360.082c3.08-2.183,5.4-3.574,9.871-4.073
	C1068.307,359.007,1065.009,359.87,1061.85,360.082z"/>
<path id="path4207" inkscape:radius="-0.27742612" sodipodi:type="inkscape:offset" inkscape:original="M -152.53125 434.28125 C -155.06772 436.59747 -162.3143 440.08656 -165.4375 440.5625 C -158.66112 439.80553 -154.57843 438.70273 -152.53125 434.28125 z " fill-opacity="0.5882" d="
	M1095.249,347.803c-1.072,0.766-2.537,1.591-4.031,2.317c-0.868,0.422-1.714,0.766-2.533,1.086c1.358-0.241,2.602-0.532,3.591-0.964
	C1093.551,349.686,1094.507,348.916,1095.249,347.803z"/>
<path id="path4209" inkscape:radius="-0.46671128" sodipodi:type="inkscape:offset" inkscape:original="M -153.125 430.03125 C -158.80395 430.66564 -161.74347 432.41453 -165.65625 435.1875 C -161.6434 434.91891 -157.46113 433.83976 -153.125 430.03125 z " fill="#FFFFFF" fill-opacity="0.7843" d="
	M1093.57,344.807c-2.782,0.701-4.689,1.774-6.682,3.309C1089.098,347.647,1091.332,346.698,1093.57,344.807z"/>
<path id="path4211" inkscape:radius="-0.12997109" sodipodi:type="inkscape:offset" inkscape:original="M -152.53125 434.28125 C -155.06772 436.59747 -162.3143 440.08656 -165.4375 440.5625 C -158.66112 439.80553 -154.57843 438.70273 -152.53125 434.28125 z " fill-opacity="0.5882" d="
	M1085.597,353.194c-1.071,0.865-2.774,1.845-4.551,2.706c-1.322,0.642-2.642,1.189-3.764,1.55c1.958-0.27,3.599-0.606,4.92-1.181
	C1083.709,355.614,1084.809,354.656,1085.597,353.194z"/>
<path id="path4213" inkscape:radius="-0.3534351" sodipodi:type="inkscape:offset" inkscape:original="M -153.125 430.03125 C -158.80395 430.66564 -161.74347 432.41453 -165.65625 435.1875 C -161.6434 434.91891 -157.46113 433.83976 -153.125 430.03125 z " fill="#FFFFFF" fill-opacity="0.7843" d="
	M1083.521,350.258c-3.251,0.709-5.309,1.879-7.572,3.627C1078.438,353.435,1080.981,352.504,1083.521,350.258z"/>
<path id="path4215" inkscape:radius="-0.37662885" sodipodi:type="inkscape:offset" inkscape:original="M -152.53125 434.28125 C -155.06772 436.59747 -162.3143 440.08656 -165.4375 440.5625 C -158.66112 439.80553 -154.57843 438.70273 -152.53125 434.28125 z " fill-opacity="0.5882" d="
	M1104.08,342.131c-1.054,0.791-2.337,1.611-3.798,2.37c-0.655,0.341-1.281,0.63-1.918,0.916c1.093-0.251,2.055-0.558,2.877-0.942
	C1102.441,343.912,1103.386,343.18,1104.08,342.131z"/>
<path id="path4217" inkscape:radius="-0.68535709" sodipodi:type="inkscape:offset" inkscape:original="M -153.125 430.03125 C -158.80395 430.66564 -161.74347 432.41453 -165.65625 435.1875 C -161.6434 434.91891 -157.46113 433.83976 -153.125 430.03125 z " fill="#FFFFFF" fill-opacity="0.7843" d="
	M1102.187,339.544c-2.109,0.72-3.688,1.661-5.24,2.92C1098.701,341.932,1100.456,341.013,1102.187,339.544z"/>
<path id="path4219" inkscape:radius="-0.50707257" sodipodi:type="inkscape:offset" inkscape:original="M -152.53125 434.28125 C -155.06772 436.59747 -162.3143 440.08656 -165.4375 440.5625 C -158.66112 439.80553 -154.57843 438.70273 -152.53125 434.28125 z " fill-opacity="0.5882" d="
	M1112.101,336.7c-0.917,0.612-1.95,1.211-3.051,1.783c-0.206,0.107-0.4,0.185-0.607,0.288c0.503-0.159,1.061-0.285,1.488-0.485
	C1110.808,337.876,1111.508,337.35,1112.101,336.7z"/>
<path id="path4221" inkscape:radius="-0.88867521" sodipodi:type="inkscape:offset" inkscape:original="M -153.125 430.03125 C -158.80395 430.66564 -161.74347 432.41453 -165.65625 435.1875 C -161.6434 434.91891 -157.46113 433.83976 -153.125 430.03125 z " fill="#FFFFFF" fill-opacity="0.7843" d="
	M1110.905,334.476c-1.263,0.483-2.284,1.184-3.278,1.881C1108.73,335.901,1109.812,335.328,1110.905,334.476z"/>
<path fill="#26A854" d="M204.603,443.8c-4.695-5.132-10.67-9.24-17.93-12.32c-7.26-3.08-15.366-4.62-24.31-4.62
	c-9.096,0-17.308,1.65-24.64,4.95c-7.335,3.3-13.568,7.811-18.7,13.53c-5.135,5.72-9.095,12.357-11.88,19.91
	c-2.788,7.556-4.18,15.585-4.18,24.09c0,8.655,1.393,16.796,4.18,24.42c2.785,7.628,6.745,14.266,11.88,19.91
	c5.132,5.647,11.44,10.085,18.92,13.31c7.48,3.228,15.84,4.84,25.08,4.84c7.333,0,14.08-0.659,20.24-1.979s11.512-3.225,16.06-5.72
	v-43.341h-34.54V482.3h56.1v75.46c-8.216,4.4-17.16,7.775-26.84,10.12c-9.68,2.344-20.24,3.52-31.68,3.52
	c-12.176,0-23.358-2.018-33.55-6.05c-10.195-4.032-18.958-9.68-26.29-16.939c-7.335-7.261-13.056-15.913-17.16-25.961
	c-4.108-10.044-6.16-21.082-6.16-33.109c0-12.172,2.09-23.282,6.27-33.33c4.18-10.045,9.972-18.624,17.38-25.74
	c7.404-7.112,16.17-12.649,26.29-16.609c10.12-3.961,21.12-5.94,33-5.94c12.464,0,23.574,1.836,33.33,5.5
	c9.752,3.668,17.854,8.58,24.31,14.74L204.603,443.8z"/>
<path fill="#FFCC00" d="M109.783,966.896c4.544,5.133,10.23,9.24,17.05,12.32c6.82,3.08,13.822,4.619,21.01,4.619
	c6.892,0,12.685-0.988,17.38-2.969c4.692-1.98,8.47-4.695,11.33-8.141c2.86-3.447,4.912-7.518,6.16-12.209
	c1.244-4.697,1.87-9.756,1.87-15.182v-13.42h-0.44c-3.815,5.869-9.02,10.342-15.62,13.42c-6.6,3.08-13.64,4.621-21.12,4.621
	c-7.92,0-15.146-1.393-21.67-4.18c-6.528-2.785-12.066-6.6-16.61-11.441c-4.548-4.84-8.067-10.521-10.56-17.049
	c-2.496-6.525-3.74-13.529-3.74-21.01s1.244-14.52,3.74-21.121c2.492-6.6,6.012-12.354,10.56-17.27
	c4.544-4.912,10.044-8.801,16.5-11.66c6.452-2.859,13.64-4.289,21.56-4.289c7.48,0,14.63,1.615,21.45,4.84
	c6.82,3.227,12.21,8.139,16.17,14.74h0.44v-16.721h20.02v99c0,7.625-0.956,14.922-2.86,21.891
	c-1.908,6.963-5.136,13.123-9.68,18.479c-4.548,5.354-10.488,9.643-17.82,12.871c-7.336,3.225-16.428,4.84-27.28,4.84
	c-9.095,0-18.226-1.65-27.39-4.949c-9.168-3.301-17.05-7.959-23.65-13.971L109.783,966.896z M115.943,895.836
	c0,4.842,0.77,9.461,2.317,13.861c1.543,4.4,3.822,8.287,6.84,11.66c3.015,3.375,6.655,6.088,10.924,8.139
	c4.266,2.057,9.124,3.08,14.568,3.08c5.294,0,10.151-0.951,14.564-2.859c4.414-1.904,8.164-4.51,11.254-7.811
	c3.087-3.299,5.479-7.184,7.171-11.66c1.691-4.471,2.54-9.273,2.54-14.41c0-4.984-0.849-9.68-2.54-14.078
	c-1.691-4.4-4.118-8.285-7.281-11.66c-3.163-3.373-6.916-6.051-11.254-8.031c-4.341-1.98-9.161-2.969-14.455-2.969
	c-5.445,0-10.302,0.988-14.568,2.969c-4.269,1.98-7.91,4.621-10.924,7.92c-3.018,3.301-5.297,7.188-6.84,11.66
	C116.713,886.123,115.943,890.852,115.943,895.836z"/>
<g>
	<path fill="#FFCC00" d="M409.11,966.896c4.544,5.133,10.23,9.24,17.05,12.32c6.82,3.08,13.822,4.619,21.01,4.619
		c6.892,0,12.685-0.988,17.38-2.969c4.692-1.98,8.47-4.695,11.33-8.141c2.86-3.447,4.912-7.518,6.16-12.209
		c1.244-4.697,1.87-9.756,1.87-15.182v-13.42h-0.44c-3.815,5.869-9.02,10.342-15.62,13.42c-6.6,3.08-13.64,4.621-21.12,4.621
		c-7.92,0-15.146-1.393-21.67-4.18c-6.528-2.785-12.066-6.6-16.61-11.441c-4.548-4.84-8.067-10.521-10.56-17.049
		c-2.496-6.525-3.74-13.529-3.74-21.01s1.244-14.52,3.74-21.121c2.492-6.6,6.012-12.354,10.56-17.27
		c4.544-4.912,10.044-8.801,16.5-11.66c6.452-2.859,13.64-4.289,21.56-4.289c7.48,0,14.63,1.615,21.45,4.84
		c6.82,3.227,12.21,8.139,16.17,14.74h0.44v-16.721h20.02v99c0,7.625-0.956,14.922-2.86,21.891
		c-1.908,6.963-5.136,13.123-9.68,18.479c-4.548,5.354-10.488,9.643-17.82,12.871c-7.336,3.225-16.428,4.84-27.28,4.84
		c-9.095,0-18.226-1.65-27.39-4.949c-9.168-3.301-17.05-7.959-23.65-13.971L409.11,966.896z M415.271,895.836
		c0,4.842,0.77,9.461,2.317,13.861c1.543,4.4,3.822,8.287,6.84,11.66c3.015,3.375,6.655,6.088,10.924,8.139
		c4.266,2.057,9.124,3.08,14.568,3.08c5.294,0,10.151-0.951,14.564-2.859c4.414-1.904,8.164-4.51,11.254-7.811
		c3.087-3.299,5.479-7.184,7.171-11.66c1.691-4.471,2.54-9.273,2.54-14.41c0-4.984-0.849-9.68-2.54-14.078
		c-1.691-4.4-4.118-8.285-7.281-11.66c-3.163-3.373-6.916-6.051-11.254-8.031c-4.341-1.98-9.161-2.969-14.455-2.969
		c-5.445,0-10.302,0.988-14.568,2.969c-4.269,1.98-7.91,4.621-10.924,7.92c-3.018,3.301-5.297,7.188-6.84,11.66
		C416.041,886.123,415.271,890.852,415.271,895.836z"/>
	<path fill="#FFCC00" d="M548.148,966.896c4.544,5.133,10.23,9.24,17.05,12.32c6.82,3.08,13.822,4.619,21.01,4.619
		c6.892,0,12.685-0.988,17.38-2.969c4.693-1.98,8.471-4.695,11.33-8.141c2.859-3.447,4.912-7.518,6.16-12.209
		c1.244-4.697,1.869-9.756,1.869-15.182v-13.42h-0.439c-3.814,5.869-9.02,10.342-15.619,13.42
		c-6.601,3.08-13.641,4.621-21.121,4.621c-7.92,0-15.146-1.393-21.67-4.18c-6.528-2.785-12.066-6.6-16.61-11.441
		c-4.548-4.84-8.067-10.521-10.56-17.049c-2.496-6.525-3.74-13.529-3.74-21.01s1.244-14.52,3.74-21.121
		c2.492-6.6,6.012-12.354,10.56-17.27c4.544-4.912,10.044-8.801,16.5-11.66c6.452-2.859,13.64-4.289,21.56-4.289
		c7.48,0,14.63,1.615,21.45,4.84c6.82,3.227,12.211,8.139,16.17,14.74h0.439v-16.721h20.021v99c0,7.625-0.957,14.922-2.861,21.891
		c-1.906,6.963-5.135,13.123-9.68,18.479c-4.547,5.354-10.488,9.643-17.82,12.871c-7.336,3.225-16.427,4.84-27.28,4.84
		c-9.095,0-18.226-1.65-27.39-4.949c-9.168-3.301-17.05-7.959-23.65-13.971L548.148,966.896z M554.308,895.836
		c0,4.842,0.77,9.461,2.317,13.861c1.543,4.4,3.822,8.287,6.84,11.66c3.015,3.375,6.655,6.088,10.924,8.139
		c4.266,2.057,9.124,3.08,14.568,3.08c5.294,0,10.151-0.951,14.564-2.859c4.415-1.904,8.165-4.51,11.255-7.811
		c3.086-3.299,5.479-7.184,7.17-11.66c1.691-4.471,2.541-9.273,2.541-14.41c0-4.984-0.85-9.68-2.541-14.078
		c-1.691-4.4-4.117-8.285-7.279-11.66c-3.164-3.373-6.916-6.051-11.256-8.031c-4.341-1.98-9.16-2.969-14.454-2.969
		c-5.445,0-10.302,0.988-14.568,2.969c-4.269,1.98-7.91,4.621-10.924,7.92c-3.018,3.301-5.297,7.188-6.84,11.66
		C555.078,886.123,554.308,890.852,554.308,895.836z"/>
</g>
<g>
	<path fill="#FFCC00" d="M841.458,966.896c4.544,5.133,10.229,9.24,17.049,12.32c6.82,3.08,13.822,4.619,21.011,4.619
		c6.892,0,12.685-0.988,17.38-2.969c4.692-1.98,8.471-4.695,11.33-8.141c2.859-3.447,4.912-7.518,6.16-12.209
		c1.244-4.697,1.869-9.756,1.869-15.182v-13.42h-0.439c-3.815,5.869-9.02,10.342-15.619,13.42
		c-6.601,3.08-13.641,4.621-21.121,4.621c-7.92,0-15.145-1.393-21.67-4.18c-6.527-2.785-12.065-6.6-16.609-11.441
		c-4.549-4.84-8.068-10.521-10.561-17.049c-2.496-6.525-3.74-13.529-3.74-21.01s1.244-14.52,3.74-21.121
		c2.492-6.6,6.012-12.354,10.561-17.27c4.544-4.912,10.044-8.801,16.5-11.66c6.451-2.859,13.64-4.289,21.56-4.289
		c7.479,0,14.63,1.615,21.45,4.84c6.82,3.227,12.21,8.139,16.17,14.74h0.439v-16.721h20.021v99c0,7.625-0.956,14.922-2.86,21.891
		c-1.907,6.963-5.135,13.123-9.68,18.479c-4.548,5.354-10.488,9.643-17.82,12.871c-7.336,3.225-16.428,4.84-27.279,4.84
		c-9.096,0-18.227-1.65-27.391-4.949c-9.168-3.301-17.05-7.959-23.65-13.971L841.458,966.896z M847.618,895.836
		c0,4.842,0.77,9.461,2.316,13.861c1.543,4.4,3.822,8.287,6.84,11.66c3.016,3.375,6.656,6.088,10.925,8.139
		c4.267,2.057,9.124,3.08,14.568,3.08c5.294,0,10.151-0.951,14.564-2.859c4.414-1.904,8.164-4.51,11.255-7.811
		c3.086-3.299,5.479-7.184,7.17-11.66c1.691-4.471,2.541-9.273,2.541-14.41c0-4.984-0.85-9.68-2.541-14.078
		c-1.691-4.4-4.117-8.285-7.28-11.66c-3.163-3.373-6.916-6.051-11.255-8.031c-4.341-1.98-9.16-2.969-14.454-2.969
		c-5.444,0-10.302,0.988-14.568,2.969c-4.269,1.98-7.909,4.621-10.925,7.92c-3.018,3.301-5.297,7.188-6.84,11.66
		C848.388,886.123,847.618,890.852,847.618,895.836z"/>
	<path fill="#FFCC00" d="M980.495,966.896c4.545,5.133,10.23,9.24,17.05,12.32c6.82,3.08,13.822,4.619,21.011,4.619
		c6.892,0,12.684-0.988,17.379-2.969c4.693-1.98,8.471-4.695,11.33-8.141c2.86-3.447,4.912-7.518,6.16-12.209
		c1.244-4.697,1.87-9.756,1.87-15.182v-13.42h-0.44c-3.814,5.869-9.02,10.342-15.619,13.42c-6.6,3.08-13.641,4.621-21.12,4.621
		c-7.92,0-15.146-1.393-21.67-4.18c-6.528-2.785-12.065-6.6-16.61-11.441c-4.548-4.84-8.067-10.521-10.56-17.049
		c-2.496-6.525-3.74-13.529-3.74-21.01s1.244-14.52,3.74-21.121c2.492-6.6,6.012-12.354,10.56-17.27
		c4.545-4.912,10.045-8.801,16.5-11.66c6.452-2.859,13.641-4.289,21.561-4.289c7.479,0,14.63,1.615,21.449,4.84
		c6.82,3.227,12.211,8.139,16.17,14.74h0.44v-16.721h20.021v99c0,7.625-0.956,14.922-2.86,21.891
		c-1.907,6.963-5.136,13.123-9.681,18.479c-4.547,5.354-10.487,9.643-17.819,12.871c-7.336,3.225-16.428,4.84-27.28,4.84
		c-9.096,0-18.226-1.65-27.39-4.949c-9.168-3.301-17.05-7.959-23.65-13.971L980.495,966.896z M986.655,895.836
		c0,4.842,0.77,9.461,2.316,13.861c1.544,4.4,3.822,8.287,6.841,11.66c3.015,3.375,6.655,6.088,10.925,8.139
		c4.266,2.057,9.123,3.08,14.568,3.08c5.293,0,10.15-0.951,14.564-2.859c4.414-1.904,8.164-4.51,11.254-7.811
		c3.087-3.299,5.479-7.184,7.171-11.66c1.691-4.471,2.54-9.273,2.54-14.41c0-4.984-0.849-9.68-2.54-14.078
		c-1.691-4.4-4.118-8.285-7.28-11.66c-3.163-3.373-6.916-6.051-11.255-8.031c-4.341-1.98-9.161-2.969-14.454-2.969
		c-5.445,0-10.303,0.988-14.568,2.969c-4.27,1.98-7.91,4.621-10.925,7.92c-3.019,3.301-5.297,7.188-6.841,11.66
		C987.425,886.123,986.655,890.852,986.655,895.836z"/>
</g>
<path fill="#FFCC00" d="M478.629,208.189c4.544,5.132,10.23,9.24,17.05,12.32c6.82,3.08,13.822,4.62,21.01,4.62
	c6.892,0,12.685-0.99,17.38-2.97c4.692-1.98,8.47-4.696,11.33-8.14c2.86-3.448,4.912-7.518,6.16-12.21
	c1.244-4.696,1.87-9.755,1.87-15.18v-13.42h-0.44c-3.815,5.868-9.02,10.34-15.62,13.42c-6.6,3.08-13.64,4.62-21.12,4.62
	c-7.92,0-15.146-1.392-21.67-4.18c-6.528-2.785-12.066-6.6-16.61-11.44c-4.548-4.84-8.067-10.522-10.56-17.05
	c-2.496-6.524-3.74-13.53-3.74-21.01s1.244-14.52,3.74-21.12c2.492-6.6,6.012-12.354,10.56-17.27c4.544-4.912,10.044-8.8,16.5-11.66
	c6.452-2.86,13.64-4.29,21.56-4.29c7.48,0,14.63,1.616,21.45,4.84c6.82,3.228,12.21,8.14,16.17,14.74h0.44v-16.72h20.02v99
	c0,7.624-0.956,14.922-2.86,21.89c-1.908,6.964-5.136,13.125-9.68,18.48c-4.548,5.353-10.488,9.643-17.82,12.87
	c-7.336,3.225-16.428,4.84-27.28,4.84c-9.095,0-18.226-1.65-27.39-4.95c-9.168-3.3-17.05-7.958-23.65-13.97L478.629,208.189z
	 M484.79,137.129c0,4.84,0.77,9.46,2.317,13.86c1.543,4.4,3.822,8.288,6.84,11.66c3.015,3.376,6.655,6.088,10.924,8.14
	c4.266,2.056,9.124,3.08,14.568,3.08c5.294,0,10.151-0.952,14.564-2.86c4.414-1.904,8.164-4.51,11.254-7.81
	c3.087-3.3,5.479-7.185,7.171-11.66c1.691-4.472,2.54-9.274,2.54-14.41c0-4.984-0.849-9.68-2.54-14.08
	c-1.691-4.4-4.118-8.285-7.281-11.66c-3.163-3.372-6.916-6.05-11.254-8.03c-4.341-1.98-9.161-2.97-14.455-2.97
	c-5.445,0-10.302,0.99-14.568,2.97c-4.269,1.98-7.91,4.62-10.924,7.92c-3.018,3.3-5.297,7.188-6.84,11.66
	C485.56,127.415,484.79,132.145,484.79,137.129z"/>
<path fill="#FFCC00" d="M910.977,208.189c4.545,5.132,10.23,9.24,17.049,12.32c6.82,3.08,13.822,4.62,21.012,4.62
	c6.891,0,12.684-0.99,17.379-2.97c4.693-1.98,8.471-4.696,11.33-8.14c2.859-3.448,4.912-7.518,6.16-12.21
	c1.244-4.696,1.869-9.755,1.869-15.18v-13.42h-0.439c-3.814,5.868-9.02,10.34-15.619,13.42c-6.6,3.08-13.641,4.62-21.121,4.62
	c-7.92,0-15.145-1.392-21.67-4.18c-6.527-2.785-12.064-6.6-16.609-11.44c-4.549-4.84-8.068-10.522-10.561-17.05
	c-2.496-6.524-3.74-13.53-3.74-21.01s1.244-14.52,3.74-21.12c2.492-6.6,6.012-12.354,10.561-17.27
	c4.545-4.912,10.045-8.8,16.5-11.66c6.451-2.86,13.641-4.29,21.561-4.29c7.479,0,14.629,1.616,21.449,4.84
	c6.82,3.228,12.211,8.14,16.17,14.74h0.439v-16.72h20.021v99c0,7.624-0.957,14.922-2.861,21.89
	c-1.906,6.964-5.135,13.125-9.68,18.48c-4.547,5.353-10.488,9.643-17.82,12.87c-7.336,3.225-16.428,4.84-27.279,4.84
	c-9.096,0-18.227-1.65-27.391-4.95c-9.168-3.3-17.049-7.958-23.65-13.97L910.977,208.189z M917.137,137.129
	c0,4.84,0.77,9.46,2.316,13.86c1.543,4.4,3.822,8.288,6.84,11.66c3.016,3.376,6.656,6.088,10.926,8.14
	c4.266,2.056,9.123,3.08,14.568,3.08c5.293,0,10.15-0.952,14.564-2.86c4.414-1.904,8.164-4.51,11.254-7.81
	c3.086-3.3,5.479-7.185,7.17-11.66c1.691-4.472,2.541-9.274,2.541-14.41c0-4.984-0.85-9.68-2.541-14.08
	c-1.691-4.4-4.117-8.285-7.279-11.66c-3.164-3.372-6.916-6.05-11.256-8.03c-4.34-1.98-9.16-2.97-14.453-2.97
	c-5.445,0-10.303,0.99-14.568,2.97c-4.27,1.98-7.91,4.62-10.926,7.92c-3.018,3.3-5.297,7.188-6.84,11.66
	C917.906,127.415,917.137,132.145,917.137,137.129z"/>
<g>
	<path fill="#26A854" d="M503.489,419.38c-4.695-5.132-10.67-9.24-17.93-12.32c-7.26-3.08-15.366-4.62-24.31-4.62
		c-9.096,0-17.308,1.65-24.64,4.95c-7.335,3.3-13.568,7.811-18.7,13.53c-5.135,5.72-9.095,12.357-11.88,19.91
		c-2.788,7.556-4.18,15.585-4.18,24.09c0,8.655,1.393,16.796,4.18,24.42c2.785,7.628,6.745,14.266,11.88,19.91
		c5.132,5.647,11.44,10.085,18.92,13.31c7.48,3.228,15.84,4.84,25.08,4.84c7.333,0,14.08-0.659,20.24-1.979s11.512-3.225,16.06-5.72
		v-43.341h-34.54V457.88h56.1v75.46c-8.216,4.4-17.16,7.775-26.84,10.12c-9.68,2.344-20.24,3.52-31.68,3.52
		c-12.176,0-23.358-2.018-33.55-6.05c-10.195-4.032-18.958-9.68-26.29-16.939c-7.335-7.261-13.056-15.913-17.16-25.961
		c-4.108-10.044-6.16-21.082-6.16-33.109c0-12.172,2.09-23.282,6.27-33.33c4.18-10.045,9.972-18.624,17.38-25.74
		c7.404-7.112,16.17-12.649,26.29-16.609c10.12-3.961,21.12-5.94,33-5.94c12.464,0,23.574,1.836,33.33,5.5
		c9.752,3.668,17.854,8.58,24.31,14.74L503.489,419.38z"/>
	<path fill="#FFCC00" d="M564.209,560.84c4.544,5.132,10.23,9.24,17.05,12.32c6.82,3.08,13.822,4.619,21.01,4.619
		c6.892,0,12.685-0.99,17.38-2.97c4.692-1.979,8.471-4.695,11.33-8.14c2.859-3.448,4.912-7.518,6.16-12.21
		c1.244-4.696,1.869-9.756,1.869-15.181v-13.42h-0.439c-3.815,5.868-9.02,10.341-15.619,13.42c-6.601,3.08-13.641,4.62-21.121,4.62
		c-7.92,0-15.145-1.392-21.669-4.18c-6.528-2.784-12.066-6.6-16.61-11.44c-4.548-4.84-8.067-10.521-10.56-17.05
		c-2.496-6.524-3.74-13.529-3.74-21.01c0-7.479,1.244-14.52,3.74-21.12c2.492-6.6,6.012-12.354,10.56-17.27
		c4.544-4.912,10.044-8.801,16.5-11.66c6.452-2.86,13.64-4.29,21.56-4.29c7.479,0,14.63,1.615,21.45,4.84
		c6.82,3.228,12.21,8.14,16.17,14.74h0.439v-16.72h20.021v99c0,7.624-0.956,14.922-2.86,21.89
		c-1.907,6.964-5.135,13.124-9.68,18.479c-4.548,5.353-10.488,9.643-17.82,12.87c-7.336,3.225-16.428,4.84-27.279,4.84
		c-9.096,0-18.226-1.649-27.39-4.95c-9.168-3.3-17.05-7.957-23.65-13.97L564.209,560.84z M570.37,489.779
		c0,4.841,0.77,9.461,2.317,13.86c1.543,4.4,3.822,8.288,6.84,11.66c3.015,3.376,6.655,6.088,10.924,8.14
		c4.267,2.056,9.124,3.08,14.568,3.08c5.294,0,10.151-0.952,14.564-2.859c4.414-1.904,8.164-4.511,11.255-7.811
		c3.086-3.3,5.479-7.185,7.17-11.66c1.691-4.472,2.541-9.274,2.541-14.41c0-4.984-0.85-9.68-2.541-14.079
		c-1.691-4.4-4.117-8.285-7.28-11.66c-3.163-3.372-6.916-6.05-11.255-8.03c-4.341-1.98-9.16-2.97-14.454-2.97
		c-5.444,0-10.302,0.989-14.568,2.97c-4.269,1.98-7.91,4.62-10.924,7.92c-3.018,3.3-5.297,7.188-6.84,11.66
		C571.14,480.065,570.37,484.795,570.37,489.779z"/>
</g>
<g>
	<path fill="#26A854" d="M935.836,419.38c-4.695-5.132-10.67-9.24-17.93-12.32s-15.365-4.62-24.311-4.62
		c-9.096,0-17.307,1.65-24.639,4.95c-7.336,3.3-13.568,7.811-18.701,13.53c-5.135,5.72-9.096,12.357-11.879,19.91
		c-2.789,7.556-4.182,15.585-4.182,24.09c0,8.655,1.393,16.796,4.182,24.42c2.783,7.628,6.744,14.266,11.879,19.91
		c5.133,5.647,11.439,10.085,18.92,13.31c7.48,3.228,15.84,4.84,25.08,4.84c7.332,0,14.08-0.659,20.24-1.979
		s11.512-3.225,16.061-5.72v-43.341h-34.541V457.88h56.102v75.46c-8.217,4.4-17.16,7.775-26.842,10.12
		c-9.68,2.344-20.238,3.52-31.68,3.52c-12.176,0-23.357-2.018-33.549-6.05c-10.195-4.032-18.959-9.68-26.291-16.939
		c-7.336-7.261-13.055-15.913-17.16-25.961c-4.107-10.044-6.16-21.082-6.16-33.109c0-12.172,2.09-23.282,6.271-33.33
		c4.18-10.045,9.971-18.624,17.379-25.74c7.404-7.112,16.17-12.649,26.291-16.609c10.119-3.961,21.119-5.94,33-5.94
		c12.463,0,23.574,1.836,33.33,5.5c9.752,3.668,17.854,8.58,24.309,14.74L935.836,419.38z"/>
	<path fill="#FFCC00" d="M996.557,560.84c4.545,5.132,10.23,9.24,17.049,12.32c6.82,3.08,13.822,4.619,21.012,4.619
		c6.891,0,12.684-0.989,17.379-2.97c4.693-1.979,8.471-4.695,11.33-8.14c2.859-3.448,4.912-7.518,6.16-12.21
		c1.244-4.696,1.869-9.756,1.869-15.181v-13.42h-0.439c-3.814,5.868-9.02,10.341-15.619,13.42c-6.6,3.08-13.641,4.62-21.121,4.62
		c-7.92,0-15.145-1.392-21.67-4.18c-6.527-2.784-12.064-6.6-16.609-11.44c-4.549-4.84-8.068-10.521-10.561-17.05
		c-2.496-6.524-3.74-13.529-3.74-21.01c0-7.479,1.244-14.52,3.74-21.12c2.492-6.6,6.012-12.354,10.561-17.27
		c4.545-4.912,10.045-8.801,16.5-11.66c6.451-2.86,13.641-4.29,21.561-4.29c7.479,0,14.629,1.615,21.449,4.84
		c6.82,3.228,12.211,8.14,16.17,14.74h0.439v-16.72h20.021v99c0,7.624-0.957,14.922-2.861,21.89
		c-1.906,6.964-5.135,13.124-9.68,18.479c-4.547,5.353-10.488,9.643-17.82,12.87c-7.336,3.225-16.428,4.84-27.279,4.84
		c-9.096,0-18.227-1.65-27.391-4.949c-9.168-3.301-17.049-7.959-23.65-13.971L996.557,560.84z M1002.717,489.779
		c0,4.841,0.77,9.461,2.316,13.86c1.543,4.4,3.822,8.288,6.84,11.66c3.016,3.376,6.656,6.088,10.926,8.14
		c4.266,2.056,9.123,3.08,14.568,3.08c5.293,0,10.15-0.952,14.564-2.859c4.414-1.904,8.164-4.511,11.254-7.811
		c3.086-3.3,5.479-7.185,7.17-11.66c1.691-4.472,2.541-9.274,2.541-14.41c0-4.984-0.85-9.68-2.541-14.079
		c-1.691-4.4-4.117-8.285-7.279-11.66c-3.164-3.372-6.916-6.05-11.256-8.03s-9.16-2.97-14.453-2.97
		c-5.445,0-10.303,0.989-14.568,2.97c-4.27,1.98-7.91,4.62-10.926,7.92c-3.018,3.3-5.297,7.188-6.84,11.66
		C1003.486,480.065,1002.717,484.795,1002.717,489.779z"/>
</g>
</svg>
